<svg width="1102" height="737" viewBox="0 0 1102 737" fill="none" xmlns="http://www.w3.org/2000/svg">
<path d="M908.108 360.521C908.108 360.521 962.151 365.874 989.527 399.38C989.527 399.38 1018.48 360.568 1070.45 361.37C1083.15 346.048 1091.24 327.434 1093.77 307.695C1096.3 287.956 1093.17 267.904 1084.75 249.873C1076.33 231.843 1062.96 216.575 1046.19 205.849C1029.43 195.123 1009.97 189.38 990.065 189.287C970.165 189.195 950.647 194.757 933.785 205.327C916.923 215.897 903.411 231.039 894.821 248.99C886.231 266.942 882.917 286.964 885.265 306.726C887.613 326.488 895.527 345.176 908.084 360.615L908.108 360.521Z" fill="#92E3A9"/>
<path opacity="0.5" d="M908.108 360.521C908.108 360.521 962.151 365.874 989.527 399.38C989.527 399.38 1018.48 360.568 1070.45 361.37C1083.15 346.048 1091.24 327.434 1093.77 307.695C1096.3 287.956 1093.17 267.904 1084.75 249.873C1076.33 231.843 1062.96 216.575 1046.19 205.849C1029.43 195.123 1009.97 189.38 990.065 189.287C970.165 189.195 950.647 194.757 933.785 205.327C916.923 215.897 903.411 231.039 894.821 248.99C886.231 266.942 882.917 286.964 885.265 306.726C887.613 326.488 895.527 345.176 908.084 360.615L908.108 360.521Z" fill="white"/>
<path d="M987.712 196.692L985.896 546.939H995.022L987.712 196.692Z" fill="#B8B8B8"/>
<path d="M990.47 389.17C990.47 389.17 1008.7 356.324 1041.54 346.279C1041.54 346.279 1006.88 354.508 989.668 382.78L990.47 389.17Z" fill="#B8B8B8"/>
<path d="M990.47 296.126C990.47 296.126 1008.7 263.28 1041.54 253.235C1041.54 253.235 1006.88 261.441 989.668 289.736L990.47 296.126Z" fill="#B8B8B8"/>
<path d="M990.47 342.601C990.47 342.601 1008.7 309.755 1041.54 299.71C1041.54 299.71 1006.88 307.939 989.668 336.211L990.47 342.601Z" fill="#B8B8B8"/>
<path d="M987.758 319.823C987.758 319.823 970.144 287.001 938.453 276.956C938.453 276.956 971.912 285.162 988.63 313.457L987.758 319.823Z" fill="#B8B8B8"/>
<path d="M987.758 365.449C987.758 365.449 970.144 332.603 938.453 322.582C938.453 322.582 971.912 330.788 988.63 359.059L987.758 365.449Z" fill="#B8B8B8"/>
<path d="M23.5761 360.521C23.5761 360.521 77.62 365.874 104.996 399.38C104.996 399.38 133.951 360.568 185.92 361.37C198.62 346.048 206.707 327.434 209.238 307.695C211.77 287.956 208.642 267.904 200.22 249.873C191.797 231.843 178.426 216.575 161.663 205.849C144.9 195.123 125.435 189.38 105.534 189.287C85.6335 189.195 66.1159 194.757 49.254 205.327C32.392 215.897 18.8795 231.039 10.2895 248.99C1.69959 266.942 -1.61426 286.964 0.733806 306.726C3.08187 326.488 10.9953 345.176 23.5526 360.615L23.5761 360.521Z" fill="#92E3A9"/>
<path opacity="0.5" d="M23.5761 360.521C23.5761 360.521 77.62 365.874 104.996 399.38C104.996 399.38 133.951 360.568 185.92 361.37C198.62 346.048 206.707 327.434 209.238 307.695C211.77 287.956 208.642 267.904 200.22 249.873C191.797 231.843 178.426 216.575 161.663 205.849C144.9 195.123 125.435 189.38 105.534 189.287C85.6335 189.195 66.1159 194.757 49.254 205.327C32.392 215.897 18.8795 231.039 10.2895 248.99C1.69959 266.942 -1.61426 286.964 0.733806 306.726C3.08187 326.488 10.9953 345.176 23.5526 360.615L23.5761 360.521Z" fill="white"/>
<path d="M103.228 196.692L101.389 546.939H110.514L103.228 196.692Z" fill="#B8B8B8"/>
<path d="M105.962 389.17C105.962 389.17 124.189 356.324 157.035 346.279C157.035 346.279 122.373 354.508 105.16 382.78L105.962 389.17Z" fill="#B8B8B8"/>
<path d="M105.962 296.126C105.962 296.126 124.189 263.28 157.035 253.235C157.035 253.235 122.373 261.441 105.16 289.736L105.962 296.126Z" fill="#B8B8B8"/>
<path d="M105.962 342.601C105.962 342.601 124.189 309.755 157.035 299.71C157.035 299.71 122.373 307.939 105.16 336.211L105.962 342.601Z" fill="#B8B8B8"/>
<path d="M103.252 319.823C103.252 319.823 85.6379 287.001 53.9473 276.956C53.9473 276.956 87.4063 285.162 104.124 313.457L103.252 319.823Z" fill="#B8B8B8"/>
<path d="M103.252 365.449C103.252 365.449 85.6379 332.603 53.9473 322.582C53.9473 322.582 87.4063 330.788 104.124 359.059L103.252 365.449Z" fill="#B8B8B8"/>
<path d="M688.512 394.475C688.512 394.475 732.747 398.837 755.148 426.26C755.148 426.26 778.845 394.499 821.382 395.135C831.772 382.593 838.385 367.358 840.452 351.204C842.519 335.049 839.955 318.64 833.059 303.886C826.162 289.132 815.216 276.64 801.496 267.866C787.775 259.091 771.845 254.394 755.559 254.322C739.273 254.25 723.301 258.805 709.503 267.458C695.705 276.11 684.649 288.504 677.622 303.196C670.595 317.889 667.885 334.275 669.809 350.447C671.733 366.619 678.211 381.912 688.489 394.546L688.512 394.475Z" fill="#92E3A9"/>
<path opacity="0.5" d="M688.512 394.475C688.512 394.475 732.747 398.837 755.148 426.26C755.148 426.26 778.845 394.499 821.382 395.135C831.772 382.593 838.385 367.358 840.452 351.204C842.519 335.049 839.955 318.64 833.059 303.886C826.162 289.132 815.216 276.64 801.496 267.866C787.775 259.091 771.845 254.394 755.559 254.322C739.273 254.25 723.301 258.805 709.503 267.458C695.705 276.11 684.649 288.504 677.622 303.196C670.595 317.889 667.885 334.275 669.809 350.447C671.733 366.619 678.211 381.912 688.489 394.546L688.512 394.475Z" fill="white"/>
<path d="M753.687 260.262L752.201 546.939H759.676L753.687 260.262Z" fill="#B8B8B8"/>
<path d="M755.926 417.819C755.926 417.819 770.875 390.938 797.732 382.709C797.732 382.709 769.437 389.429 755.289 412.584L755.926 417.819Z" fill="#B8B8B8"/>
<path d="M755.926 341.657C755.926 341.657 770.875 314.777 797.732 306.571C797.732 306.571 769.437 313.291 755.289 336.423L755.926 341.657Z" fill="#B8B8B8"/>
<path d="M755.926 379.739C755.926 379.739 770.875 352.858 797.732 344.629C797.732 344.629 769.437 351.349 755.289 374.504L755.926 379.739Z" fill="#B8B8B8"/>
<path d="M753.709 361.064C753.709 361.064 739.302 334.183 713.365 325.978C713.365 325.978 740.741 332.698 754.44 355.829L753.709 361.064Z" fill="#B8B8B8"/>
<path d="M753.709 398.39C753.709 398.39 739.302 371.509 713.365 363.304C713.365 363.304 740.741 370.024 754.44 393.179L753.709 398.39Z" fill="#B8B8B8"/>
<path d="M260.524 394.475C260.524 394.475 304.759 398.837 327.159 426.26C327.159 426.26 350.739 394.499 393.394 395.135C403.783 382.593 410.397 367.358 412.464 351.204C414.531 335.049 411.967 318.64 405.07 303.886C398.174 289.132 387.228 276.64 373.508 267.866C359.787 259.091 343.857 254.394 327.57 254.322C311.284 254.25 295.313 258.805 281.515 267.458C267.717 276.11 256.661 288.504 249.634 303.196C242.606 317.889 239.897 334.275 241.821 350.447C243.745 366.619 250.223 381.912 260.501 394.546L260.524 394.475Z" fill="#92E3A9"/>
<path opacity="0.5" d="M260.524 394.475C260.524 394.475 304.759 398.837 327.159 426.26C327.159 426.26 350.739 394.499 393.394 395.135C403.783 382.593 410.397 367.358 412.464 351.204C414.531 335.049 411.967 318.64 405.07 303.886C398.174 289.132 387.228 276.64 373.508 267.866C359.787 259.091 343.857 254.394 327.57 254.322C311.284 254.25 295.313 258.805 281.515 267.458C267.717 276.11 256.661 288.504 249.634 303.196C242.606 317.889 239.897 334.275 241.821 350.447C243.745 366.619 250.223 381.912 260.501 394.546L260.524 394.475Z" fill="white"/>
<path d="M325.698 260.262L324.213 546.939H331.688L325.698 260.262Z" fill="#B8B8B8"/>
<path d="M328.057 417.819C328.057 417.819 343.006 390.938 369.863 382.709C369.863 382.709 341.568 389.429 327.42 412.584L328.057 417.819Z" fill="#B8B8B8"/>
<path d="M328.057 341.657C328.057 341.657 343.006 314.777 369.863 306.571C369.863 306.571 341.568 313.291 327.42 336.423L328.057 341.657Z" fill="#B8B8B8"/>
<path d="M328.057 379.739C328.057 379.739 343.006 352.858 369.863 344.629C369.863 344.629 341.568 351.349 327.42 374.504L328.057 379.739Z" fill="#B8B8B8"/>
<path d="M325.698 361.063C325.698 361.063 311.314 334.183 285.377 326.095C285.377 326.095 312.753 332.815 326.452 355.947L325.698 361.063Z" fill="#B8B8B8"/>
<path d="M325.698 398.39C325.698 398.39 311.291 371.509 285.354 363.304C285.354 363.304 312.729 370.024 326.429 393.179L325.698 398.39Z" fill="#B8B8B8"/>
<path d="M39.8459 548.189H1057.39" stroke="#263238" stroke-width="1.04742" stroke-miterlimit="10"/>
<path opacity="0.3" d="M317.658 661.983C317.658 669.057 274.202 674.692 220.559 674.692C166.916 674.692 123.459 669.009 123.459 661.983C123.459 654.956 166.939 649.273 220.559 649.273C274.178 649.273 317.658 654.98 317.658 661.983Z" fill="black"/>
<path opacity="0.3" d="M520.936 661.983C520.936 669.057 477.455 674.692 423.836 674.692C370.217 674.692 326.736 669.009 326.736 661.983C326.736 654.956 370.217 649.273 423.836 649.273C477.455 649.273 520.936 654.98 520.936 661.983Z" fill="black"/>
<path opacity="0.3" d="M790.211 661.983C790.211 669.057 746.754 674.692 693.135 674.692C639.515 674.692 596.035 669.009 596.035 661.983C596.035 654.956 639.492 649.273 693.135 649.273C746.778 649.273 790.211 654.98 790.211 661.983Z" fill="black"/>
<path opacity="0.3" d="M1015.16 661.983C1015.16 669.057 971.677 674.692 918.057 674.692C864.438 674.692 820.863 669.009 820.863 661.983C820.863 654.956 864.344 649.273 917.963 649.273C971.582 649.273 1015.16 654.98 1015.16 661.983Z" fill="black"/>
<path d="M703.627 290.184C703.627 290.184 699.642 306.689 699.642 309.471C699.639 311.193 699.45 312.908 699.076 314.588C699.076 314.588 690.564 324.798 691.696 327.628C693.071 329.828 695.041 331.593 697.378 332.721C697.378 332.721 701.905 349.226 706.456 350.311C711.13 351.184 715.856 351.751 720.604 352.009L722.302 365.614L744.985 362.218L739.326 341.799L741.684 324.209C741.684 324.209 745.645 316.852 741.684 304.944C737.722 293.037 729.21 292.471 723.528 292.471C716.859 292.048 710.217 291.285 703.627 290.184V290.184Z" fill="white" stroke="#263238" stroke-width="1.04742" stroke-linecap="round" stroke-linejoin="round"/>
<path d="M713.837 281.695C713.837 281.695 693.983 281.106 694.549 286.222C695.115 291.339 715.535 298.012 715.535 298.012C715.535 298.012 708.72 302.539 712.116 307.09C715.511 311.641 723.457 315.602 723.457 315.602C723.457 315.602 721.099 325.246 724.613 325.812C728.126 326.378 730.272 321.261 730.838 319.563C731.404 317.866 737.652 318.432 739.35 322.959C740.31 325.311 740.883 327.804 741.048 330.339C741.048 330.339 747.862 309.919 748.994 300.841C750.126 291.763 724.613 281.695 713.837 281.695Z" fill="#263238" stroke="#263238" stroke-width="1.04742" stroke-linecap="round" stroke-linejoin="round"/>
<path d="M726.404 326.095C726.404 326.095 733.266 311.004 737.369 318.431C741.472 325.859 739.727 333.593 735.695 334.418C731.663 335.243 728.291 336.045 728.291 336.045" fill="white"/>
<path d="M726.404 326.095C726.404 326.095 733.266 311.004 737.369 318.431C741.472 325.859 739.727 333.593 735.695 334.418C731.663 335.243 728.291 336.045 728.291 336.045" stroke="#263238" stroke-width="1.04742" stroke-linecap="round" stroke-linejoin="round"/>
<path d="M698.511 483.582C697.402 484.879 679.223 523.855 676.959 536.895C674.696 549.934 659.958 627.651 659.369 631.047C658.779 634.442 627.631 641.257 625.344 641.823C623.057 642.388 627.702 648.637 634.422 650.335C641.142 652.032 660.524 659.979 665.075 655.428C669.626 650.877 675.851 625.364 677.549 622.535C679.246 619.705 711.173 544.487 711.173 544.487C711.173 544.487 727.537 508.387 730.932 504.968C734.328 501.549 726.9 486.435 724.047 481.884C721.194 477.333 706.457 474.504 698.511 483.582Z" fill="#263238" stroke="#263238" stroke-width="1.04742" stroke-linecap="round" stroke-linejoin="round"/>
<path d="M695.116 484.077C695.116 484.077 703.062 522.087 707.024 535.692C710.731 547.119 716.309 557.851 723.529 567.453C728.08 573.702 750.197 628.759 750.197 628.759L753.593 637.272C753.593 637.272 752.461 640.667 746.236 645.194C740.011 649.721 722.397 657.102 726.948 658.823C731.499 660.544 749.631 660.521 758.144 659.955C765.472 659.436 772.342 656.198 777.408 650.877C780.827 646.892 771.749 635.55 771.749 633.287C771.749 631.023 751.895 561.841 750.763 558.422C749.631 555.003 743.949 530.646 743.949 530.646V502.94C743.949 502.94 746.802 497.847 746.802 486.435C746.802 475.022 738.29 472.806 738.29 472.806L691.768 477.356L695.116 484.077Z" fill="#263238" stroke="#263238" stroke-width="1.04742" stroke-linecap="round" stroke-linejoin="round"/>
<path d="M691.178 480.752C691.178 480.752 692.333 490.396 695.729 490.962C699.124 491.527 734.281 501.171 749.607 489.83C749.607 489.83 752.437 481.318 750.739 479.054C749.041 476.79 745.057 477.922 724.66 477.922C704.264 477.922 691.178 477.922 691.178 480.752Z" fill="#92E3A9" stroke="#263238" stroke-width="1.04742" stroke-linecap="round" stroke-linejoin="round"/>
<path d="M743.311 353.706C743.311 353.706 722.326 356.536 713.248 365.496C704.17 374.456 696.247 391.032 692.286 406.335C688.324 421.638 685.471 477.804 691.13 480.634C696.789 483.463 744.443 486.316 752.437 482.992C760.43 479.667 751.871 452.928 751.871 442.718C751.871 432.508 760.949 397.917 759.251 378.653C757.553 359.389 743.311 353.706 743.311 353.706Z" fill="#92E3A9" stroke="#263238" stroke-width="1.04742" stroke-linecap="round" stroke-linejoin="round"/>
<path d="M667.598 412.655C667.339 389.311 657.813 369.387 645.151 360.78V356.064L610.253 356.418C590.611 356.63 574.884 382.355 575.285 413.716C575.686 445.076 591.79 470.471 611.456 470.306L646.353 469.953V465.237C658.614 456.112 667.716 435.998 667.598 412.655Z" fill="#263238" stroke="#263238" stroke-width="1.04742" stroke-linecap="round" stroke-linejoin="round"/>
<path d="M683.256 412.489C682.997 387.967 673.541 367.028 660.242 357.927V352.904L645.293 353.069C624.638 353.282 608.203 380.233 608.557 413.267C608.91 446.302 625.911 472.9 646.566 472.687L661.516 472.522V467.523C674.508 458.139 683.515 436.917 683.256 412.489Z" fill="white" stroke="#263238" stroke-width="1.04742" stroke-linecap="round" stroke-linejoin="round"/>
<path d="M698.252 412.325C698.606 445.336 682.148 472.311 661.516 472.523C640.884 472.735 623.789 446.138 623.506 413.127C623.223 380.115 639.61 353.141 660.242 352.905C680.874 352.669 697.851 379.29 698.252 412.325Z" fill="#737373" stroke="#263238" stroke-width="1.04742" stroke-linecap="round" stroke-linejoin="round"/>
<path d="M689.669 411.311C689.834 426.944 682.029 439.724 672.244 439.842C662.458 439.959 654.394 427.321 654.229 411.546C654.064 395.772 661.869 383.251 671.654 383.015C681.44 382.78 689.504 395.654 689.669 411.311Z" fill="#263238" stroke="#263238" stroke-width="1.04742" stroke-linecap="round" stroke-linejoin="round"/>
<path d="M967.527 528.877C969.474 514.343 970.302 499.681 970.003 485.02C962.34 488.556 917.634 489.853 913.531 489.948C909.428 490.042 864.722 488.556 857.058 485.02C856.721 499.678 857.509 514.34 859.416 528.877C862.505 548 889.669 624.562 890.282 628.264C891.077 631.834 892.109 635.347 893.37 638.78C893.37 638.78 877.926 649.886 871.135 654.201C864.344 658.516 869.296 660.379 876.087 660.379C882.878 660.379 897.072 658.516 901.387 658.516C905.207 658.516 911.857 655.192 913.413 654.39C914.969 655.192 921.618 658.516 925.415 658.516C929.753 658.516 943.948 660.379 950.739 660.379C957.53 660.379 962.529 658.516 955.691 654.201C948.853 649.886 933.455 638.78 933.455 638.78C934.717 635.347 935.749 631.834 936.544 628.264C937.275 624.491 964.439 547.929 967.527 528.877Z" fill="#263238" stroke="#263238" stroke-width="1.04742" stroke-linecap="round" stroke-linejoin="round"/>
<path d="M904.193 364.977C904.193 364.977 880.308 372.782 867.976 380.61C855.644 388.438 843.264 430.834 843.264 432.485C842.555 435.439 841.593 438.326 840.388 441.115C840.388 441.115 828.032 438.238 825.58 448.519C823.128 458.799 837.912 471.98 845.74 472.404C853.569 472.829 856.021 470.353 856.021 470.353C856.021 470.353 851.093 480.233 853.144 484.336C855.196 488.438 872.503 503.694 906.669 503.199C940.836 502.704 965.618 497.021 969.225 492.093C972.833 487.165 973.352 476.861 973.352 476.861C973.352 476.861 986.108 473.56 990.635 465.331C995.162 457.101 994.337 448.448 991.861 439.818C989.386 431.188 976.629 406.123 967.999 392.117C959.369 378.111 941.237 370.306 932.63 367.83C924.024 365.354 909.947 364.977 904.193 364.977Z" fill="#92E3A9" stroke="#263238" stroke-width="1.04742" stroke-linecap="round" stroke-linejoin="round"/>
<path d="M911.433 399.639C914.852 398.507 925.581 388.981 929.707 379.455C931.34 375.808 932.489 371.964 933.126 368.019L932.584 367.854C923.954 365.378 909.948 364.978 904.289 364.978C904.289 364.978 899.29 366.604 892.688 369.127C892.728 374.224 893.687 379.272 895.517 384.03C899.243 393.556 908.109 400.795 911.433 399.639Z" fill="white" stroke="#263238" stroke-width="1.04742" stroke-linecap="round" stroke-linejoin="round"/>
<path d="M950.692 418.88C950.692 418.88 960.571 471.58 971.771 477.003" stroke="#263238" stroke-width="1.04742" stroke-linecap="round" stroke-linejoin="round"/>
<path d="M856.022 470.353C856.022 470.353 868.377 423.831 869.202 419.304" stroke="#263238" stroke-width="1.04742" stroke-linecap="round" stroke-linejoin="round"/>
<path d="M966.655 442.695C966.655 442.695 959.817 444.227 959.817 449.179" stroke="#263238" stroke-width="1.04742" stroke-linecap="round" stroke-linejoin="round"/>
<path d="M850.481 443.449C850.481 443.449 858.097 448.401 857.342 456.017" stroke="#263238" stroke-width="1.04742" stroke-linecap="round" stroke-linejoin="round"/>
<path d="M901.506 658.564C905.326 658.564 911.975 655.239 913.531 654.437C915.088 655.239 921.737 658.564 925.533 658.564C929.872 658.564 944.067 660.426 950.858 660.426C957.648 660.426 962.647 658.564 955.809 654.249C949.891 650.499 937.488 641.634 934.328 639.37C927.042 646.019 912.635 644.369 912.635 644.369C909.717 643.929 906.827 643.315 903.982 642.53C899.667 641.28 893.489 638.828 893.489 638.828C893.489 638.828 878.045 649.934 871.254 654.249C864.463 658.564 869.415 660.426 876.205 660.426C882.996 660.426 897.191 658.564 901.506 658.564Z" fill="#92E3A9" stroke="#263238" stroke-width="1.04742" stroke-linecap="round" stroke-linejoin="round"/>
<path d="M912.635 638.922V531.259" stroke="white" stroke-width="1.04742" stroke-linecap="round" stroke-linejoin="round"/>
<path d="M913.531 654.319L912.635 644.251V638.922" stroke="#263238" stroke-width="1.04742" stroke-linecap="round" stroke-linejoin="round"/>
<path d="M903.981 527.557H921.877" stroke="white" stroke-width="1.04742" stroke-linecap="round" stroke-linejoin="round"/>
<path d="M880.59 303.199C880.59 303.199 867.763 310.886 869.673 317.63C871.582 324.374 877.383 325.671 876.11 329.42C874.836 333.169 870.38 335.527 875.449 337.885C878.337 339.178 881.357 340.15 884.457 340.785C884.457 340.785 889.173 357.149 897.284 360.026C905.395 362.902 919.448 360.992 929.399 359.719C932.76 359.39 935.942 358.045 938.52 355.863C941.098 353.681 942.95 350.766 943.83 347.505C944.796 343.992 939.656 348.165 937.086 344.298C934.516 340.431 938.383 330.504 941.259 321.827C944.136 313.15 935.482 296.786 924.259 291.339C913.035 285.892 891.601 288.745 880.59 303.199Z" fill="#263238" stroke="#263238" stroke-width="1.04742" stroke-linecap="round" stroke-linejoin="round"/>
<path d="M902.142 359.106C900.51 364.488 899.404 370.016 898.841 375.611C898.416 382.685 904.193 390.443 910.371 390.018C916.549 389.594 921.877 377.262 922.703 371.155C923.528 365.048 920.651 348.519 920.651 348.519C920.651 348.519 911.22 348.943 907.471 352.221C905.269 354.152 903.46 356.49 902.142 359.106V359.106Z" fill="white" stroke="#263238" stroke-width="1.04742" stroke-linecap="round" stroke-linejoin="round"/>
<path d="M893.771 312.183C893.771 312.183 894.078 321.803 903.722 331.047C909.519 336.653 916.394 341.024 923.929 343.897C923.761 346.004 923.218 348.065 922.326 349.981C921.906 350.782 921.253 351.437 920.453 351.858C919.653 352.279 918.743 352.447 917.846 352.339H914.615C914.615 352.339 909.899 363.397 904.193 365.001C898.487 366.604 884.457 365.496 882.524 351.372C880.59 337.248 880.284 325.694 881.887 322.794C883.491 319.894 893.771 312.183 893.771 312.183Z" fill="white" stroke="#263238" stroke-width="1.04742" stroke-linecap="round" stroke-linejoin="round"/>
<path d="M994.668 436.447C996.131 433.497 997.019 430.296 997.285 427.015C997.285 422.723 989.315 416.569 987.854 415.037C986.392 413.504 984.93 413.669 984.623 415.815C984.619 417.019 984.862 418.212 985.336 419.319C985.811 420.426 986.507 421.424 987.382 422.252C988.577 423.194 989.444 424.49 989.858 425.954C989.999 427.015 987.217 432.226 988.608 435.598C989.999 438.97 993.913 439.983 994.668 436.447Z" fill="white" stroke="#263238" stroke-width="1.04742" stroke-linecap="round" stroke-linejoin="round"/>
<path d="M675.332 412.372C675.332 412.372 710.041 423.477 730.909 449.415C751.776 475.352 765.476 471.626 791.413 462.996C817.35 454.366 827.23 423.477 863.047 449.415C898.864 475.352 906.268 485.208 935.907 470.4C965.547 455.593 981.581 419.775 1008.77 432.107C1035.95 444.439 1023.58 507.561 1026.05 538.214C1028.53 568.868 1024.8 645.666 1030.98 655.545C1037.16 665.425 1100.14 657.903 1100.14 657.903" stroke="#263238" stroke-width="3.14226" stroke-linecap="round" stroke-linejoin="round"/>
<path d="M740.34 371.155C740.34 371.155 733.431 359.884 723.245 362.831C712.469 365.944 706.904 381.341 704.381 390.938C701.858 400.535 700.161 410.91 695.539 419.846C695.539 419.846 675.119 419.493 663.731 416.191C655.041 413.482 646.494 410.334 638.123 406.76C638.123 406.76 634.091 401.124 631.238 400.016C628.385 398.908 620.981 396.738 620.439 398.436C619.897 400.134 629.022 405.722 629.022 405.722C629.022 405.722 612.045 408.08 610.347 409.896C608.649 411.711 622.349 417.135 622.349 417.135C622.349 417.135 627.466 418.785 639.915 415.814C639.915 415.814 685.589 444.817 694.69 448.141C703.792 451.466 708.838 452.527 715.039 440.549C721.241 428.571 741.825 398.861 745.103 386.906" fill="#92E3A9"/>
<path d="M740.34 371.155C740.34 371.155 733.431 359.884 723.245 362.831C712.469 365.944 706.904 381.341 704.381 390.938C701.858 400.535 700.161 410.91 695.539 419.846C695.539 419.846 675.119 419.493 663.731 416.191C655.041 413.482 646.494 410.334 638.123 406.76C638.123 406.76 634.091 401.124 631.238 400.016C628.385 398.908 620.981 396.738 620.439 398.436C619.897 400.134 629.022 405.722 629.022 405.722C629.022 405.722 612.045 408.08 610.347 409.896C608.649 411.711 622.349 417.135 622.349 417.135C622.349 417.135 627.466 418.785 639.915 415.814C639.915 415.814 685.589 444.817 694.69 448.141C703.792 451.466 708.838 452.527 715.039 440.549C721.241 428.571 741.825 398.861 745.103 386.906" stroke="#263238" stroke-width="1.04742" stroke-linecap="round" stroke-linejoin="round"/>
<path d="M649.985 411.57C643.312 409.07 638.196 406.854 638.196 406.854C638.196 406.854 634.164 401.219 631.311 400.11C628.457 399.002 621.054 396.833 620.511 398.531C619.969 400.228 629.094 405.817 629.094 405.817C629.094 405.817 612.117 408.174 610.419 409.99C608.722 411.806 622.421 417.229 622.421 417.229C622.421 417.229 627.538 418.879 639.988 415.908L646.378 419.941L649.985 411.57Z" fill="white" stroke="#263238" stroke-width="1.04742" stroke-linecap="round" stroke-linejoin="round"/>
<path d="M826.028 440.785C824.564 437.836 823.676 434.635 823.41 431.353C823.41 427.062 831.404 420.931 832.842 419.398C834.28 417.866 835.742 418.031 836.049 420.176C836.053 421.381 835.81 422.574 835.336 423.681C834.861 424.788 834.165 425.786 833.29 426.614C832.095 427.556 831.228 428.851 830.814 430.316C830.673 431.353 833.455 436.588 832.064 439.96C830.673 443.331 826.782 444.298 826.028 440.785Z" fill="white" stroke="#263238" stroke-width="1.04742" stroke-linecap="round" stroke-linejoin="round"/>
<path d="M831.522 427.84C831.522 427.84 824.943 439.983 828.763 444.345C832.583 448.707 836.285 434.536 836.992 430.622C837.7 426.708 833.95 422.77 831.522 427.84Z" fill="white" stroke="#263238" stroke-width="1.04742" stroke-linecap="round" stroke-linejoin="round"/>
<path d="M836.946 432.202C836.946 432.202 830.367 444.345 834.187 448.707C838.007 453.07 841.709 438.898 842.416 434.984C843.123 431.07 839.374 426.991 836.946 432.202Z" fill="white" stroke="#263238" stroke-width="1.04742" stroke-linecap="round" stroke-linejoin="round"/>
<path d="M842.91 433.215C842.91 433.215 836.332 445.359 840.152 449.721C843.971 454.083 847.673 439.912 848.381 435.998C849.088 432.084 845.339 428.122 842.91 433.215Z" fill="white" stroke="#263238" stroke-width="1.04742" stroke-linecap="round" stroke-linejoin="round"/>
<path d="M850.55 433.31C850.55 433.31 844.42 442.742 847.768 446.302C851.116 449.863 854.724 438.663 855.431 435.432C856.139 432.202 852.814 429.066 850.55 433.31Z" fill="white" stroke="#263238" stroke-width="1.04742" stroke-linecap="round" stroke-linejoin="round"/>
<path d="M990.281 428.312C990.281 428.312 996.859 440.455 993.039 444.817C989.219 449.179 985.518 434.984 984.81 431.07C984.103 427.156 987.852 423.218 990.281 428.312Z" fill="white" stroke="#263238" stroke-width="1.04742" stroke-linecap="round" stroke-linejoin="round"/>
<path d="M984.859 432.556C984.859 432.556 991.437 444.699 987.617 449.061C983.798 453.424 980.096 439.229 979.388 435.315C978.681 431.401 982.43 427.486 984.859 432.556Z" fill="white" stroke="#263238" stroke-width="1.04742" stroke-linecap="round" stroke-linejoin="round"/>
<path d="M978.845 433.687C978.845 433.687 985.424 445.83 981.604 450.193C977.784 454.555 974.082 440.384 973.398 436.446C972.714 432.508 976.487 428.594 978.845 433.687Z" fill="white" stroke="#263238" stroke-width="1.04742" stroke-linecap="round" stroke-linejoin="round"/>
<path d="M971.252 433.782C971.252 433.782 977.383 443.331 974.035 446.774C970.686 450.217 967.079 439.134 966.395 435.904C965.711 432.674 968.989 429.538 971.252 433.782Z" fill="white" stroke="#263238" stroke-width="1.04742" stroke-linecap="round" stroke-linejoin="round"/>
<path d="M159.982 568.137V581.53C155.334 586.609 151.992 592.743 150.244 599.403C147.39 610.344 138.454 657.432 140.812 658.658C143.17 659.884 165.358 664.953 172.432 663.892C180.543 662.666 187.452 663.091 183.373 658.611C179.293 654.13 157.86 641.61 157.86 641.61C157.86 641.61 181.439 607.514 186.674 594.923C191.908 582.331 192.757 562.855 192.757 562.855L161.114 561.652L159.982 568.137Z" fill="white" stroke="#263238" stroke-width="1.04742" stroke-linecap="round" stroke-linejoin="round"/>
<path d="M172.433 663.892C180.544 662.666 187.453 663.091 183.374 658.611C179.295 654.13 157.861 641.61 157.861 641.61L157.059 646.467L141.615 644.581C140.483 652.456 139.988 658.233 140.813 658.728C143.336 659.86 165.359 664.953 172.433 663.892Z" fill="#263238" stroke="#263238" stroke-width="1.04742" stroke-linecap="round" stroke-linejoin="round"/>
<path d="M237.512 575.069L241.167 581.577C239.652 584.498 238.761 587.702 238.549 590.986C238.338 594.27 238.812 597.562 239.941 600.653C243.596 612.018 252.131 653.824 252.131 656.253C252.131 658.681 257.389 660.308 261.563 660.308C265.737 660.308 277.29 661.11 278.917 661.11C280.544 661.11 292.31 663.138 296.366 660.709C300.422 658.281 291.202 653.4 285.119 650.57C279.035 647.74 265.642 640.431 265.642 640.431C265.642 640.431 268.873 607.137 268.873 592.518C268.873 577.899 272.127 573.041 267.67 564.105C263.214 555.168 235.201 568.184 235.201 568.184L237.512 575.069Z" fill="white" stroke="#263238" stroke-width="1.04742" stroke-linecap="round" stroke-linejoin="round"/>
<path d="M285 650.57C278.917 647.717 265.524 640.431 265.524 640.431L263.897 646.515L250.857 648.873C251.635 652.928 252.131 655.711 252.131 656.276C252.131 658.634 257.389 660.332 261.562 660.332C265.736 660.332 277.29 661.134 278.917 661.134C280.544 661.134 292.31 663.162 296.365 660.733C300.421 658.304 291.084 653.4 285 650.57Z" fill="#263238" stroke="#263238" stroke-width="1.04742" stroke-linecap="round" stroke-linejoin="round"/>
<path d="M215.654 304.873C212.472 299.436 208.836 294.277 204.784 289.453C199.195 283.157 181.676 283.511 173.989 291.811C166.302 300.11 168.731 314.918 171.631 319.115C174.531 323.312 180.379 342.93 180.379 342.93L181.77 356.937L214.333 368.49L207.684 345.736C207.684 345.736 220.299 343.379 221.336 339.441C222.374 335.503 219.238 322.275 219.238 322.275C219.238 322.275 223.435 319.469 223.081 317.017C222.728 314.565 215.654 304.873 215.654 304.873Z" fill="white" stroke="#263238" stroke-width="1.04742" stroke-linecap="round" stroke-linejoin="round"/>
<path d="M178.185 319.964C178.185 319.964 183.75 324.68 186.792 319.28C189.834 313.881 192.144 308.599 192.144 304.024C192.144 299.45 180.708 295.654 188.324 292.588C195.941 289.523 201.435 296.338 204.83 289.5C208.225 282.662 205.137 281.931 186.839 281.931C168.541 281.931 159.393 291.079 163.26 302.515C166.352 310.961 170.179 319.119 174.696 326.896L178.185 319.964Z" fill="#263238" stroke="#263238" stroke-width="1.04742" stroke-linecap="round" stroke-linejoin="round"/>
<path d="M216.691 312.961C216.691 314.691 216.178 316.383 215.217 317.821C214.256 319.26 212.89 320.381 211.291 321.043C209.693 321.705 207.934 321.879 206.237 321.541C204.54 321.204 202.981 320.37 201.758 319.147C200.534 317.924 199.701 316.365 199.364 314.668C199.026 312.971 199.199 311.212 199.861 309.614C200.523 308.015 201.645 306.649 203.083 305.688C204.522 304.726 206.213 304.213 207.943 304.213C210.263 304.213 212.489 305.135 214.129 306.776C215.77 308.416 216.691 310.641 216.691 312.961V312.961Z" stroke="#263238" stroke-width="1.04742" stroke-linecap="round" stroke-linejoin="round"/>
<path d="M215.418 305.204C216.436 304.787 217.525 304.571 218.625 304.567C220.446 304.57 222.215 305.178 223.655 306.294C225.094 307.411 226.122 308.974 226.577 310.737C227.033 312.501 226.891 314.366 226.173 316.04C225.455 317.714 224.202 319.102 222.61 319.988" stroke="#263238" stroke-width="1.04742" stroke-linecap="round" stroke-linejoin="round"/>
<path d="M199.195 312.961L178.186 319.964" stroke="#263238" stroke-width="1.04742" stroke-linecap="round" stroke-linejoin="round"/>
<path d="M184.221 324.515C184.221 324.515 180.024 315.767 175.827 317.441C171.63 319.116 173.728 332.862 177.926 334.254C179.336 334.571 180.802 334.546 182.201 334.181C183.6 333.816 184.891 333.121 185.966 332.155C185.966 332.155 189.479 339.512 193.677 341.587" fill="white"/>
<path d="M184.221 324.515C184.221 324.515 180.024 315.767 175.827 317.441C171.63 319.116 173.728 332.862 177.926 334.254C179.336 334.571 180.802 334.546 182.201 334.181C183.6 333.816 184.891 333.121 185.966 332.155C185.966 332.155 189.479 339.512 193.677 341.587" stroke="#263238" stroke-width="1.04742" stroke-linecap="round" stroke-linejoin="round"/>
<path d="M156.682 481.718L154.065 515.248L146.236 564.883C146.236 564.883 164.534 579.243 181.605 579.243C198.677 579.243 203.369 577.073 203.369 577.073L212.942 526.142L222.516 579.691C222.516 579.691 241.379 576.649 253.876 573.583C262.566 571.165 270.802 567.342 278.257 562.265L253.004 496.526L247.533 462.619C247.533 462.619 219.238 465.236 202.237 466.109C185.237 466.981 162.624 462.619 162.624 462.619L156.682 481.718Z" fill="#92E3A9" stroke="#263238" stroke-width="1.04742" stroke-linecap="round" stroke-linejoin="round"/>
<path d="M174.626 347.741C174.626 347.741 214.711 361.723 227.09 375.305C233.928 382.85 241.591 434.489 244.35 447.104C247.109 459.719 251.919 484.831 251.919 484.831C251.919 484.831 227.467 495.866 208.557 496.267C189.646 496.668 153.358 487.991 153.358 487.991C153.358 487.991 157.673 432.037 157.673 406.029C157.673 380.021 158.073 363.044 162.388 354.767C162.412 354.838 169.509 346.939 174.626 347.741Z" fill="#263238" stroke="#263238" stroke-width="1.04742" stroke-linecap="round" stroke-linejoin="round"/>
<path d="M164.086 492.046C164.086 492.046 166.256 528.617 164.086 542.128C162.563 550.845 159.932 559.332 156.258 567.382" stroke="#263238" stroke-width="1.04742" stroke-linecap="round" stroke-linejoin="round"/>
<path d="M164.957 509.471C168.231 508.347 171.157 506.391 173.447 503.795C175.737 501.199 177.313 498.052 178.02 494.664" stroke="#263238" stroke-width="1.04742" stroke-linecap="round" stroke-linejoin="round"/>
<path d="M148.404 557.809C148.404 557.809 170.192 576.531 204.146 569.599" stroke="#263238" stroke-width="1.04742" stroke-linecap="round" stroke-linejoin="round"/>
<path d="M221.572 568.679C221.572 568.679 257.272 564.765 272.952 554.319" stroke="#263238" stroke-width="1.04742" stroke-linecap="round" stroke-linejoin="round"/>
<path d="M381.25 330.811C381.25 330.811 377.808 333.357 365.806 342.129C353.804 350.9 363.259 364.152 363.259 364.152C363.259 364.152 354.676 365.496 343.217 377.545C331.757 389.594 348.334 410.273 363.825 413.503C379.317 416.734 397.426 397.564 402.849 379.785C408.272 362.006 401.104 335.196 397.497 329.655C393.889 324.114 381.25 330.811 381.25 330.811Z" fill="#263238" stroke="#263238" stroke-width="1.04742" stroke-linecap="round" stroke-linejoin="round"/>
<path d="M426.713 328.453C426.713 328.453 432.678 319.233 427.279 305.864C421.879 292.494 405.751 286.387 390.047 296.078C384.813 299.193 380.753 303.948 378.498 309.605C376.242 315.263 375.917 321.507 377.573 327.368C379.106 333.546 386.84 343.048 388.467 343.19C390.094 343.331 404.218 348.472 413.862 343.968C423.506 339.464 426.713 328.453 426.713 328.453Z" fill="#263238" stroke="#263238" stroke-width="1.04742" stroke-linecap="round" stroke-linejoin="round"/>
<path d="M357.318 639.7C357.318 639.7 368.519 657.125 387.972 660.096C407.425 663.067 389.929 645.619 386.651 642.978C383.374 640.337 359.959 634.631 357.318 639.7Z" fill="#737373" stroke="#263238" stroke-width="1.04742" stroke-linecap="round" stroke-linejoin="round"/>
<path d="M460.949 644.18C460.949 644.18 482.336 649.438 480.685 654.06C479.034 658.681 461.609 658.328 451.423 655.687C441.237 653.046 431.664 649.108 432.984 644.84C434.304 640.573 460.949 644.18 460.949 644.18Z" fill="#737373" stroke="#263238" stroke-width="1.04742" stroke-linecap="round" stroke-linejoin="round"/>
<path d="M400.138 363.114C400.138 363.114 371.512 367.311 366.278 377.427C361.043 387.542 368.423 442.647 368.423 442.647C368.423 442.647 356.209 469.599 356.044 486.953C355.879 504.307 363.613 534.843 363 542.459C362.387 550.075 354.559 636.776 354.559 639.134C354.559 641.492 371.064 646.774 394.856 649.603C418.647 652.433 464.155 643.968 464.155 643.968C464.155 643.968 463.259 592.801 465.641 562.289C468.022 531.777 464.627 504.354 458.567 492.966C452.507 481.577 424.283 440.572 424.283 440.572C424.283 440.572 437.959 415.767 438.808 404.92C439.657 394.074 435.247 388.415 424.919 375.941C421.85 372.262 418.077 369.232 413.822 367.029C409.566 364.827 404.914 363.496 400.138 363.114V363.114Z" fill="#92E3A9" stroke="#263238" stroke-width="1.04742" stroke-linecap="round" stroke-linejoin="round"/>
<path d="M424.354 440.596C424.354 440.596 438.03 415.791 438.879 404.944C439.728 394.098 435.319 388.439 424.991 375.965C424.496 375.352 423.977 374.81 423.458 374.244L423.081 374.598C412.47 391.929 377.384 421.544 366.939 430.174C367.74 437.555 368.424 442.648 368.424 442.648C368.424 442.648 356.21 469.599 356.045 486.953C356.241 494.861 357.029 502.743 358.403 510.533C383.185 496.385 416.337 469.906 434.281 455.145C428.669 446.845 424.354 440.596 424.354 440.596Z" fill="#737373" stroke="#263238" stroke-width="1.04742" stroke-linecap="round" stroke-linejoin="round"/>
<path d="M394.856 342.884C395.647 349.355 396.08 355.865 396.152 362.384C395.775 367.218 397.331 378.253 405.584 381.719C413.837 385.185 419.024 380.351 419.001 375.494C418.701 371.482 417.909 367.523 416.643 363.704L416.879 350.382C416.879 350.382 402.637 341.469 394.856 342.884Z" fill="white" stroke="#263238" stroke-width="1.04742" stroke-linecap="round" stroke-linejoin="round"/>
<path d="M387.452 334.23C387.452 334.23 381.392 328.901 381.203 336.588C381.014 344.274 388.088 346.821 389.644 347.34C390.958 347.518 392.29 347.189 393.37 346.42C393.37 346.42 404.358 355.852 413.177 356.465C421.995 357.078 425.579 352.999 427.654 336.988C429.729 320.978 413.2 304.732 413.2 304.732C413.2 304.732 399.053 330.811 387.452 334.23Z" fill="white" stroke="#263238" stroke-width="1.04742" stroke-linecap="round" stroke-linejoin="round"/>
<path d="M252.602 484.501C252.522 481.768 252.97 479.046 253.923 476.484C255.385 473.277 263.354 471.438 265.123 470.825C266.891 470.212 267.787 470.825 267.269 472.499C266.856 473.399 266.265 474.206 265.532 474.87C264.798 475.535 263.937 476.044 263.001 476.366C261.781 476.659 260.684 477.327 259.865 478.276C259.417 479.03 259.7 483.864 257.507 485.916C255.314 487.967 251.871 487.401 252.602 484.501Z" fill="white" stroke="#263238" stroke-width="1.04742" stroke-linecap="round" stroke-linejoin="round"/>
<path d="M433.314 413.598C433.314 413.598 405.019 409.896 392.546 429.655C380.072 449.415 356.752 518.549 313.531 529.679C270.31 540.808 257.955 451.867 232.017 454.343C207.306 456.701 190.046 454.343 175.215 481.506C167.292 496.055 127.679 654.909 108.957 656.536C49.3248 661.747 10.9376 658.351 10.9376 658.351" stroke="#263238" stroke-width="3.14226" stroke-linecap="round" stroke-linejoin="round"/>
<path d="M176.465 348.873C176.465 348.873 169.934 346.255 161.209 351.466C152.485 356.677 129 413.739 130.745 419.846C132.49 425.953 157.295 437.272 171.23 441.186C185.166 445.1 210.419 449.91 210.419 449.91C210.419 449.91 218.248 462.101 220.865 462.525C224.672 462.474 228.463 462.039 232.183 461.228C232.183 461.228 236.899 465.142 238.714 460.78C240.53 456.418 236.97 450.782 233.055 446.42C229.141 442.058 212.589 439.889 212.589 439.889L167.717 408.953L186.581 374.126" fill="#263238"/>
<path d="M176.465 348.873C176.465 348.873 169.934 346.255 161.209 351.466C152.485 356.677 129 413.739 130.745 419.846C132.49 425.953 157.295 437.272 171.23 441.186C185.166 445.1 210.419 449.91 210.419 449.91C210.419 449.91 218.248 462.101 220.865 462.525C224.672 462.474 228.463 462.039 232.183 461.228C232.183 461.228 236.899 465.142 238.714 460.78C240.53 456.418 236.97 450.782 233.055 446.42C229.141 442.058 212.589 439.889 212.589 439.889L167.717 408.953L186.581 374.126" stroke="#263238" stroke-width="1.04742" stroke-linecap="round" stroke-linejoin="round"/>
<path d="M220.864 462.501C224.671 462.45 228.463 462.015 232.182 461.204C232.182 461.204 236.898 465.118 238.714 460.756C240.53 456.394 236.969 450.759 233.055 446.396C229.141 442.034 212.588 439.865 212.588 439.865L167.717 408.953L174.413 396.479C157.648 386.033 146.519 386.812 140.506 388.91C134.493 403.341 129.919 417.017 130.721 419.823C132.466 425.93 157.271 437.248 171.206 441.162C185.142 445.076 210.395 449.886 210.395 449.886C210.395 449.886 218.247 462.077 220.864 462.501Z" fill="white" stroke="#263238" stroke-width="1.04742" stroke-linecap="round" stroke-linejoin="round"/>
<path d="M501.34 414.565C499.43 393.98 489.55 377.073 477.76 370.353L477.383 366.156L446.589 369.009C429.258 370.613 417.303 394.404 419.873 422.134C422.443 449.863 438.572 471.014 455.902 469.292L486.697 466.439L486.296 462.242C496.671 453.565 503.25 435.149 501.34 414.565Z" fill="#263238" stroke="#263238" stroke-width="1.04742" stroke-linecap="round" stroke-linejoin="round"/>
<path d="M515.276 413.338C513.272 391.716 503.487 373.914 491.013 366.84L490.589 362.431L477.408 363.657C459.205 365.354 446.637 390.325 449.325 419.469C452.013 448.613 468.99 470.848 487.194 469.151L500.374 467.925L499.974 463.515C510.867 454.225 517.281 434.89 515.276 413.338Z" fill="white" stroke="#263238" stroke-width="1.04742" stroke-linecap="round" stroke-linejoin="round"/>
<path d="M528.481 412.041C531.193 441.186 518.625 466.156 500.398 467.854C482.171 469.551 465.218 447.293 462.459 418.172C459.7 389.052 472.315 363.94 490.518 362.36C508.722 360.78 525.746 382.921 528.481 412.041Z" fill="white" stroke="#263238" stroke-width="1.04742" stroke-linecap="round" stroke-linejoin="round"/>
<path d="M542.628 395.017L491.484 399.733C490.767 399.801 490.044 399.727 489.355 399.515C488.667 399.303 488.027 398.957 487.473 398.497C486.919 398.037 486.461 397.472 486.125 396.834C485.79 396.197 485.584 395.499 485.519 394.782V394.782C485.451 394.065 485.525 393.341 485.737 392.653C485.949 391.964 486.295 391.325 486.755 390.77C487.215 390.216 487.781 389.758 488.418 389.423C489.056 389.087 489.753 388.881 490.47 388.816L541.614 384.1C542.331 384.032 543.055 384.106 543.743 384.318C544.431 384.531 545.071 384.877 545.625 385.337C546.18 385.797 546.638 386.362 546.973 386.999C547.308 387.637 547.515 388.334 547.58 389.052V389.052C547.648 389.769 547.574 390.493 547.361 391.181C547.149 391.869 546.803 392.509 546.343 393.063C545.883 393.618 545.318 394.076 544.68 394.411C544.043 394.746 543.345 394.952 542.628 395.017V395.017Z" fill="#737373" stroke="#263238" stroke-width="1.04742" stroke-linecap="round" stroke-linejoin="round"/>
<path d="M546.425 435.55L495.281 440.266C494.564 440.334 493.841 440.26 493.152 440.048C492.464 439.835 491.824 439.489 491.27 439.029C490.716 438.569 490.258 438.004 489.922 437.367C489.587 436.729 489.381 436.032 489.316 435.314V435.314C489.248 434.597 489.322 433.874 489.534 433.185C489.746 432.497 490.092 431.857 490.552 431.303C491.012 430.749 491.577 430.291 492.215 429.955C492.852 429.62 493.55 429.414 494.267 429.349L545.411 424.633C546.857 424.508 548.293 424.958 549.41 425.884C550.527 426.811 551.233 428.141 551.376 429.585V429.585C551.445 430.302 551.37 431.025 551.158 431.714C550.946 432.402 550.6 433.042 550.14 433.596C549.68 434.15 549.115 434.608 548.477 434.943C547.84 435.279 547.142 435.485 546.425 435.55V435.55Z" fill="#737373" stroke="#263238" stroke-width="1.04742" stroke-linecap="round" stroke-linejoin="round"/>
<path d="M382.454 366.958C382.454 366.958 370.146 369.316 364.322 376.39C358.498 383.464 346.543 438.05 349.302 444.322C352.061 450.594 396.272 458.469 409.924 459.601C420.902 460.035 431.898 459.546 442.794 458.139C442.794 458.139 454.583 457.833 457.814 457.29C461.044 456.748 466.986 453.565 467.081 452.362C467.175 451.16 466.585 448.283 462.176 447.929C457.767 447.576 448.311 444.416 447.109 444.322C449.942 443.577 452.816 442.994 455.715 442.577C455.715 442.577 456.328 440.219 451.471 440.219C446.614 440.219 442.204 439.889 440.365 442.577C439.05 444.671 437.929 446.881 437.017 449.179C437.017 449.179 409.783 451.089 394.999 443.874C380.214 436.659 375.546 434.253 375.546 434.253L386.156 391.811" fill="#92E3A9"/>
<path d="M382.454 366.958C382.454 366.958 370.146 369.316 364.322 376.39C358.498 383.464 346.543 438.05 349.302 444.322C352.061 450.594 396.272 458.469 409.924 459.601C420.902 460.035 431.898 459.546 442.794 458.139C442.794 458.139 454.583 457.833 457.814 457.29C461.044 456.748 466.986 453.565 467.081 452.362C467.175 451.16 466.585 448.283 462.176 447.929C457.767 447.576 448.311 444.416 447.109 444.322C449.942 443.577 452.816 442.994 455.715 442.577C455.715 442.577 456.328 440.219 451.471 440.219C446.614 440.219 442.204 439.889 440.365 442.577C439.05 444.671 437.929 446.881 437.017 449.179C437.017 449.179 409.783 451.089 394.999 443.874C380.214 436.659 375.546 434.253 375.546 434.253L386.156 391.811" stroke="#263238" stroke-width="1.04742" stroke-linecap="round" stroke-linejoin="round"/>
<path d="M457.742 457.361C461.02 456.819 466.915 453.636 467.009 452.433C467.103 451.231 466.514 448.354 462.105 448C457.695 447.647 448.24 444.487 447.037 444.393C449.871 443.647 452.744 443.065 455.644 442.648C455.644 442.648 456.257 440.29 451.4 440.29C446.542 440.29 442.133 439.96 440.294 442.648C438.979 444.742 437.858 446.952 436.945 449.25C436.945 449.25 409.711 451.16 394.927 443.945C380.143 436.729 375.474 434.324 375.474 434.324L381.935 408.387C373.525 404.926 364.65 402.725 355.597 401.855C351.187 419.634 347.58 440.573 349.23 444.298C351.966 450.57 396.2 458.446 409.853 459.578C420.831 460.012 431.826 459.523 442.722 458.116C442.722 458.116 454.536 457.904 457.742 457.361Z" fill="white" stroke="#263238" stroke-width="1.04742" stroke-linecap="round" stroke-linejoin="round"/>
<path d="M258.591 479.926C258.591 479.926 249.49 486.741 250.881 491.245C252.272 495.748 259.865 486.529 261.751 483.817C263.637 481.105 262.152 477.003 258.591 479.926Z" fill="white" stroke="#263238" stroke-width="1.04742" stroke-linecap="round" stroke-linejoin="round"/>
<path d="M260.384 486.033C260.384 486.033 251.306 492.848 252.674 497.351C254.041 501.855 261.681 492.635 263.544 489.924C265.407 487.212 263.945 483.062 260.384 486.033Z" fill="white" stroke="#263238" stroke-width="1.04742" stroke-linecap="round" stroke-linejoin="round"/>
<path d="M264.699 489.995C264.699 489.995 255.621 496.809 257.012 501.313C258.403 505.817 265.996 496.597 267.882 493.886C269.769 491.174 268.283 487.024 264.699 489.995Z" fill="white" stroke="#263238" stroke-width="1.04742" stroke-linecap="round" stroke-linejoin="round"/>
<path d="M268.259 493.201C268.259 493.201 260.407 498.247 261.728 501.973C263.048 505.699 269.533 498.648 271.16 496.479C272.787 494.31 271.466 490.82 268.259 493.201Z" fill="white" stroke="#263238" stroke-width="1.04742" stroke-linecap="round" stroke-linejoin="round"/>
</svg>
