<svg xmlns="http://www.w3.org/2000/svg" width="64" height="64" viewBox="0 0 64 64" fill="none">
  <path fillRule="evenodd" clipRule="evenodd" d="M33.9577 34.8906H30.3545L32.1561 38.0906L33.9577 34.8906ZM29.5657 33.489H34.7465L36.3945 30.553C35.6099 30.5214 34.8694 30.1816 34.3337 29.6074C34.0552 29.9064 33.7182 30.1448 33.3435 30.3078C32.9689 30.4708 32.5647 30.555 32.1561 30.555C31.7475 30.555 31.3433 30.4708 30.9687 30.3078C30.5941 30.1448 30.257 29.9064 29.9785 29.6074C29.4429 30.1816 28.7023 30.5214 27.9177 30.553L29.5657 33.489ZM14.3369 6.6506C17.2921 6.2474 22.7865 5.6986 26.5865 7.993V28.1818L26.7337 28.4442C26.9106 28.6664 27.1522 28.8281 27.425 28.9068C27.6979 28.9855 27.9885 28.9773 28.2565 28.8834C28.5245 28.7895 28.7566 28.6145 28.9207 28.3827C29.0848 28.1509 29.1726 27.8738 29.1721 27.5898V7.993H30.7881V27.5898C30.7881 27.953 30.9324 28.3014 31.1893 28.5583C31.4461 28.8151 31.7945 28.9594 32.1577 28.9594C32.521 28.9594 32.8693 28.8151 33.1262 28.5583C33.383 28.3014 33.5273 27.953 33.5273 27.5898V7.993H35.1433V27.5898C35.1428 27.8738 35.2307 28.1509 35.3947 28.3827C35.5588 28.6145 35.7909 28.7895 36.0589 28.8834C36.3269 28.9773 36.6175 28.9855 36.8904 28.9068C37.1633 28.8281 37.4049 28.6664 37.5817 28.4442L37.7289 28.1818V7.993C41.5289 5.705 45.8089 6.129 49.9785 6.657V36.9914C42.8617 37.273 36.9401 39.8602 32.1641 45.1674C27.3721 39.8602 21.4441 37.273 14.3369 36.9914V6.6506Z" fill="#F58220"/>
  <path fillRule="evenodd" clipRule="evenodd" d="M3.59673 14.0908C6.42553 12.8684 8.86713 12.5772 11.7039 12.4028V39.43C21.9279 39.4924 27.3327 42.7804 31.0015 47.91C31.0367 48.0332 30.6815 48.0908 28.9119 47.182C20.0031 43.0572 13.0911 42.9708 4.35673 45.8236C3.57913 46.014 3.23673 45.6156 3.27673 44.9308C3.25326 34.8871 3.22873 24.8439 3.20313 14.8012C3.18587 14.6565 3.2146 14.51 3.28524 14.3825C3.35588 14.255 3.46486 14.1529 3.59673 14.0908Z" fill="#007E41"/>
  <path d="M46.6324 52.2602H50.538C50.6123 52.2577 50.6864 52.2706 50.7555 52.2981C50.8246 52.3257 50.8873 52.3672 50.9396 52.4202C50.9933 52.4768 51.0351 52.5437 51.0626 52.6168C51.09 52.6899 51.1026 52.7677 51.0996 52.8457C51.1036 52.9299 51.0902 53.014 51.0602 53.0928C51.0302 53.1715 50.9842 53.2432 50.9252 53.3034C50.8707 53.3586 50.8057 53.4023 50.7339 53.4317C50.6621 53.4611 50.5851 53.4757 50.5076 53.4746H46.6324V52.2602ZM46.6692 54.9322H50.73C50.8088 54.928 50.8876 54.9405 50.9613 54.9688C51.035 54.997 51.102 55.0405 51.1578 55.0963C51.2136 55.1522 51.2571 55.2191 51.2854 55.2928C51.3136 55.3665 51.3261 55.4453 51.322 55.5242C51.3307 55.6109 51.321 55.6986 51.2934 55.7813C51.2658 55.864 51.221 55.94 51.162 56.0042C51.0434 56.107 50.8899 56.1602 50.7332 56.153H46.6692V54.9322ZM44.4996 55.4042V57.8217H50.8196C51.1998 57.8262 51.5799 57.8049 51.9572 57.7578C52.2449 57.7209 52.5232 57.6308 52.778 57.4922C53.0215 57.3533 53.2156 57.1419 53.3332 56.8874C53.4796 56.5463 53.5474 56.1766 53.5316 55.8057C53.5448 55.5062 53.4901 55.2076 53.3716 54.9322C53.2841 54.7332 53.1449 54.5614 52.9684 54.4346C52.829 54.3344 52.6714 54.2627 52.5044 54.2234C52.3661 54.1929 52.2251 54.1768 52.0836 54.1754V54.1482C52.1793 54.1436 52.274 54.1264 52.3652 54.097C52.51 54.0508 52.6439 53.9757 52.7588 53.8761C52.9195 53.7383 53.0446 53.5638 53.1236 53.3674C53.239 53.0854 53.2935 52.7822 53.2836 52.4778C53.3 52.1318 53.2238 51.7876 53.0628 51.4809C52.9282 51.2428 52.7268 51.0493 52.4836 50.9242C52.249 50.8059 51.9956 50.7295 51.7348 50.6986C51.4346 50.665 51.1328 50.6495 50.8308 50.6522H44.5108L44.4996 55.4042ZM41.442 50.6522V57.8217H43.682V50.6522H41.442ZM36.002 56.0922V50.6522H33.762V57.8217H40.8372V56.089L36.002 56.0922ZM27.442 56.1546V54.9705H32.722V53.5194H27.442V52.313H33.0676V50.6522H25.2068V57.8217H33.0676V56.153L27.442 56.1546ZM22.1508 50.6554V57.825H24.3908V50.6522L22.1508 50.6554ZM16.1204 56.0265L13.258 50.6522H10.7764L14.682 57.7946H17.5364L21.4644 50.6522H18.9844L16.1204 56.0265Z" fill="#007E41"/>
  <path fillRule="evenodd" clipRule="evenodd" d="M60.4832 14.0908C57.6496 12.8684 55.2032 12.5772 52.3712 12.4028V39.43C42.1472 39.4924 36.7408 42.7804 33.0736 47.91C33.0384 48.0332 33.3936 48.0908 35.1632 47.182C44.0656 43.0652 50.984 42.9788 59.7184 45.8316C60.496 46.022 60.8384 45.6236 60.7984 44.9388L60.8704 14.8092C60.8902 14.6639 60.8634 14.5161 60.7938 14.387C60.7242 14.2579 60.6155 14.1542 60.4832 14.0908Z" fill="#007E41"/>
</svg>