<svg width="194" height="48" viewBox="0 0 194 48" fill="none" xmlns="http://www.w3.org/2000/svg">
    <path
        d="M65.922 21.9177C65.138 21.9177 64.4147 21.7917 63.752 21.5397C63.0893 21.2877 62.5107 20.933 62.016 20.4757C61.5307 20.009 61.1527 19.4677 60.882 18.8517C60.6113 18.2357 60.476 17.559 60.476 16.8217C60.476 16.0843 60.6113 15.4077 60.882 14.7917C61.1527 14.1757 61.5307 13.639 62.016 13.1817C62.5107 12.715 63.0893 12.3557 63.752 12.1037C64.4147 11.8517 65.138 11.7257 65.922 11.7257C66.7153 11.7257 67.4387 11.8517 68.092 12.1037C68.7547 12.3557 69.3287 12.7103 69.814 13.1677C70.2993 13.625 70.6773 14.1663 70.948 14.7917C71.228 15.4077 71.368 16.0843 71.368 16.8217C71.368 17.559 71.228 18.2403 70.948 18.8657C70.6773 19.4817 70.2993 20.0183 69.814 20.4757C69.3287 20.933 68.7547 21.2877 68.092 21.5397C67.4387 21.7917 66.7153 21.9177 65.922 21.9177ZM69.128 24.0877C68.708 24.0877 68.316 24.041 67.952 23.9477C67.588 23.8637 67.2287 23.7237 66.874 23.5277C66.5287 23.3317 66.1647 23.0657 65.782 22.7297C65.4087 22.3937 64.9887 21.9783 64.522 21.4837L67.42 20.7557C67.6533 21.101 67.8633 21.3717 68.05 21.5677C68.2367 21.7637 68.4187 21.9037 68.596 21.9877C68.7827 22.0717 68.9787 22.1137 69.184 22.1137C69.7253 22.1137 70.22 21.885 70.668 21.4277L71.872 22.8557C71.1907 23.677 70.276 24.0877 69.128 24.0877ZM65.922 19.6217C66.2953 19.6217 66.6407 19.5563 66.958 19.4257C67.2847 19.295 67.5647 19.1083 67.798 18.8657C68.0407 18.6137 68.2273 18.315 68.358 17.9697C68.498 17.6243 68.568 17.2417 68.568 16.8217C68.568 16.3923 68.498 16.0097 68.358 15.6737C68.2273 15.3283 68.0407 15.0343 67.798 14.7917C67.5647 14.5397 67.2847 14.3483 66.958 14.2177C66.6407 14.087 66.2953 14.0217 65.922 14.0217C65.5487 14.0217 65.1987 14.087 64.872 14.2177C64.5547 14.3483 64.2747 14.5397 64.032 14.7917C63.7987 15.0343 63.612 15.3283 63.472 15.6737C63.3413 16.0097 63.276 16.3923 63.276 16.8217C63.276 17.2417 63.3413 17.6243 63.472 17.9697C63.612 18.315 63.7987 18.6137 64.032 18.8657C64.2747 19.1083 64.5547 19.295 64.872 19.4257C65.1987 19.5563 65.5487 19.6217 65.922 19.6217ZM76.5858 21.8477C75.9698 21.8477 75.4145 21.7263 74.9198 21.4837C74.4345 21.241 74.0518 20.863 73.7718 20.3497C73.5012 19.827 73.3658 19.169 73.3658 18.3757V14.1337H76.0258V17.9417C76.0258 18.5297 76.1332 18.9497 76.3478 19.2017C76.5718 19.4537 76.8845 19.5797 77.2858 19.5797C77.5472 19.5797 77.7852 19.519 77.9998 19.3977C78.2145 19.2763 78.3872 19.085 78.5178 18.8237C78.6485 18.553 78.7138 18.2077 78.7138 17.7877V14.1337H81.3738V21.7217H78.8398V19.5797L79.3298 20.1817C79.0685 20.7417 78.6905 21.1617 78.1958 21.4417C77.7012 21.7123 77.1645 21.8477 76.5858 21.8477ZM88.4212 21.7217V20.3077L88.2392 19.9577V17.3537C88.2392 16.9337 88.1085 16.6117 87.8472 16.3877C87.5952 16.1543 87.1892 16.0377 86.6292 16.0377C86.2652 16.0377 85.8965 16.0983 85.5232 16.2197C85.1499 16.3317 84.8325 16.4903 84.5712 16.6957L83.6752 14.8897C84.1045 14.6097 84.6179 14.395 85.2152 14.2457C85.8219 14.087 86.4239 14.0077 87.0212 14.0077C88.2532 14.0077 89.2052 14.2923 89.8772 14.8617C90.5585 15.4217 90.8992 16.3037 90.8992 17.5077V21.7217H88.4212ZM86.1812 21.8477C85.5745 21.8477 85.0612 21.745 84.6412 21.5397C84.2212 21.3343 83.8992 21.0543 83.6752 20.6997C83.4605 20.345 83.3532 19.9483 83.3532 19.5097C83.3532 19.043 83.4699 18.6417 83.7032 18.3057C83.9459 17.9603 84.3145 17.699 84.8092 17.5217C85.3039 17.335 85.9432 17.2417 86.7272 17.2417H88.5192V18.6277H87.0912C86.6619 18.6277 86.3585 18.6977 86.1812 18.8377C86.0132 18.9777 85.9292 19.1643 85.9292 19.3977C85.9292 19.631 86.0179 19.8177 86.1952 19.9577C86.3725 20.0977 86.6152 20.1677 86.9232 20.1677C87.2125 20.1677 87.4739 20.0977 87.7072 19.9577C87.9499 19.8083 88.1272 19.5843 88.2392 19.2857L88.6032 20.2657C88.4632 20.7883 88.1879 21.185 87.7772 21.4557C87.3759 21.717 86.8439 21.8477 86.1812 21.8477ZM87.8192 13.3637L87.0072 12.5517C87.2779 12.421 87.4599 12.2903 87.5532 12.1597C87.6465 12.0197 87.6932 11.8797 87.6932 11.7397C87.6932 11.5623 87.6325 11.427 87.5112 11.3337C87.3992 11.231 87.2499 11.1797 87.0632 11.1797C86.7925 11.1797 86.5219 11.273 86.2512 11.4597L85.7052 10.4237C85.9292 10.2557 86.1859 10.1297 86.4752 10.0457C86.7645 9.95235 87.0585 9.90568 87.3572 9.90568C87.8985 9.90568 88.3372 10.055 88.6732 10.3537C89.0185 10.6523 89.1912 11.0397 89.1912 11.5157C89.1912 11.945 89.0745 12.309 88.8412 12.6077C88.6079 12.9063 88.2672 13.1583 87.8192 13.3637ZM98.2202 14.0077C98.8082 14.0077 99.3402 14.129 99.8162 14.3717C100.292 14.605 100.666 14.969 100.936 15.4637C101.216 15.9583 101.356 16.5977 101.356 17.3817V21.7217H98.6962V17.8157C98.6962 17.2743 98.5842 16.8823 98.3602 16.6397C98.1456 16.3877 97.8422 16.2617 97.4502 16.2617C97.1702 16.2617 96.9136 16.327 96.6802 16.4577C96.4469 16.579 96.2649 16.7703 96.1342 17.0317C96.0036 17.293 95.9382 17.6337 95.9382 18.0537V21.7217H93.2782V14.1337H95.8122V16.2897L95.3222 15.6597C95.6116 15.109 96.0082 14.6983 96.5122 14.4277C97.0162 14.1477 97.5856 14.0077 98.2202 14.0077ZM108.5 21.7217V11.3337H111.16V21.7217H108.5ZM114.891 24.5637C114.49 24.5637 114.084 24.4983 113.673 24.3677C113.272 24.2463 112.945 24.083 112.693 23.8777L113.617 22.0157C113.776 22.1557 113.958 22.263 114.163 22.3377C114.378 22.4217 114.588 22.4637 114.793 22.4637C115.082 22.4637 115.311 22.3983 115.479 22.2677C115.647 22.137 115.792 21.9317 115.913 21.6517L116.263 20.7697L116.473 20.5037L119.049 14.1337H121.583L118.307 22.0297C118.046 22.683 117.742 23.1917 117.397 23.5557C117.061 23.929 116.683 24.1903 116.263 24.3397C115.852 24.489 115.395 24.5637 114.891 24.5637ZM115.927 22.0437L112.581 14.1337H115.311L117.775 20.2657L115.927 22.0437ZM115.563 13.2237L117.439 11.0957H120.099L117.467 13.2237H115.563ZM131.133 21.8477C130.162 21.8477 129.406 21.6097 128.865 21.1337C128.324 20.6483 128.053 19.9203 128.053 18.9497V12.4397H130.713V18.9217C130.713 19.1923 130.788 19.407 130.937 19.5657C131.086 19.715 131.278 19.7897 131.511 19.7897C131.828 19.7897 132.099 19.7103 132.323 19.5517L132.981 21.4137C132.757 21.563 132.482 21.6703 132.155 21.7357C131.828 21.8103 131.488 21.8477 131.133 21.8477ZM126.947 16.4017V14.4137H132.449V16.4017H126.947ZM139.649 14.0077C140.237 14.0077 140.769 14.129 141.245 14.3717C141.721 14.605 142.094 14.969 142.365 15.4637C142.645 15.9583 142.785 16.5977 142.785 17.3817V21.7217H140.125V17.8157C140.125 17.2743 140.013 16.8823 139.789 16.6397C139.574 16.3877 139.271 16.2617 138.879 16.2617C138.599 16.2617 138.342 16.327 138.109 16.4577C137.875 16.579 137.693 16.7703 137.563 17.0317C137.432 17.293 137.367 17.6337 137.367 18.0537V21.7217H134.707V11.3337H137.367V16.2897L136.751 15.6597C137.04 15.109 137.437 14.6983 137.941 14.4277C138.445 14.1477 139.014 14.0077 139.649 14.0077ZM148.347 21.8477C147.731 21.8477 147.175 21.7263 146.681 21.4837C146.195 21.241 145.813 20.863 145.533 20.3497C145.262 19.827 145.127 19.169 145.127 18.3757V14.1337H147.787V17.9417C147.787 18.5297 147.894 18.9497 148.109 19.2017C148.333 19.4537 148.645 19.5797 149.047 19.5797C149.308 19.5797 149.546 19.519 149.761 19.3977C149.975 19.2763 150.148 19.085 150.279 18.8237C150.409 18.553 150.475 18.2077 150.475 17.7877V14.1337H153.135V21.7217H150.601V19.5797L151.091 20.1817C150.829 20.7417 150.451 21.1617 149.957 21.4417C149.462 21.7123 148.925 21.8477 148.347 21.8477ZM151.427 15.8137V14.1337H151.903C152.127 14.1337 152.313 14.0543 152.463 13.8957C152.621 13.7277 152.701 13.513 152.701 13.2517C152.701 13.093 152.673 12.9437 152.617 12.8037C152.57 12.6543 152.505 12.533 152.421 12.4397L153.961 11.8937C154.11 12.0897 154.227 12.309 154.311 12.5517C154.404 12.7943 154.451 13.065 154.451 13.3637C154.451 14.1383 154.217 14.7403 153.751 15.1697C153.284 15.599 152.635 15.8137 151.805 15.8137H151.427ZM162.669 21.7217L159.547 14.1337H162.277L164.769 20.4757H163.397L166.015 14.1337H168.549L165.413 21.7217H162.669ZM169.936 21.7217V14.1337H172.596V21.7217H169.936ZM171.266 13.2937C170.781 13.2937 170.389 13.1583 170.09 12.8877C169.792 12.617 169.642 12.281 169.642 11.8797C169.642 11.4783 169.792 11.1423 170.09 10.8717C170.389 10.601 170.781 10.4657 171.266 10.4657C171.752 10.4657 172.144 10.5963 172.442 10.8577C172.741 11.1097 172.89 11.4363 172.89 11.8377C172.89 12.2577 172.741 12.6077 172.442 12.8877C172.153 13.1583 171.761 13.2937 171.266 13.2937ZM179.001 21.8477C178.105 21.8477 177.321 21.6797 176.649 21.3437C175.986 20.9983 175.468 20.5317 175.095 19.9437C174.731 19.3463 174.549 18.6697 174.549 17.9137C174.549 17.1577 174.726 16.4857 175.081 15.8977C175.445 15.3003 175.944 14.8383 176.579 14.5117C177.214 14.1757 177.928 14.0077 178.721 14.0077C179.468 14.0077 180.149 14.1617 180.765 14.4697C181.381 14.7683 181.871 15.2117 182.235 15.7997C182.599 16.3877 182.781 17.1017 182.781 17.9417C182.781 18.035 182.776 18.1423 182.767 18.2637C182.758 18.385 182.748 18.497 182.739 18.5997H176.733V17.1997H181.325L180.317 17.5917C180.326 17.2463 180.261 16.9477 180.121 16.6957C179.99 16.4437 179.804 16.2477 179.561 16.1077C179.328 15.9677 179.052 15.8977 178.735 15.8977C178.418 15.8977 178.138 15.9677 177.895 16.1077C177.662 16.2477 177.48 16.4483 177.349 16.7097C177.218 16.9617 177.153 17.2603 177.153 17.6057V18.0117C177.153 18.385 177.228 18.707 177.377 18.9777C177.536 19.2483 177.76 19.4583 178.049 19.6077C178.338 19.7477 178.684 19.8177 179.085 19.8177C179.458 19.8177 179.776 19.7663 180.037 19.6637C180.308 19.5517 180.574 19.3837 180.835 19.1597L182.235 20.6157C181.871 21.017 181.423 21.325 180.891 21.5397C180.359 21.745 179.729 21.8477 179.001 21.8477ZM178.665 24.7737C178.357 24.7737 178.096 24.6757 177.881 24.4797C177.666 24.2837 177.559 24.0223 177.559 23.6957C177.559 23.369 177.666 23.103 177.881 22.8977C178.096 22.6923 178.357 22.5897 178.665 22.5897C178.973 22.5897 179.234 22.6923 179.449 22.8977C179.664 23.103 179.771 23.369 179.771 23.6957C179.771 24.0223 179.664 24.2837 179.449 24.4797C179.234 24.6757 178.973 24.7737 178.665 24.7737ZM175.697 13.2237L177.517 11.0957H179.813L181.633 13.2237H179.869L177.895 11.4737H179.435L177.461 13.2237H175.697ZM189.65 14.0077C190.238 14.0077 190.77 14.129 191.246 14.3717C191.722 14.605 192.095 14.969 192.366 15.4637C192.646 15.9583 192.786 16.5977 192.786 17.3817V21.7217H190.126V17.8157C190.126 17.2743 190.014 16.8823 189.79 16.6397C189.575 16.3877 189.272 16.2617 188.88 16.2617C188.6 16.2617 188.343 16.327 188.11 16.4577C187.876 16.579 187.694 16.7703 187.564 17.0317C187.433 17.293 187.368 17.6337 187.368 18.0537V21.7217H184.708V14.1337H187.242V16.2897L186.752 15.6597C187.041 15.109 187.438 14.6983 187.942 14.4277C188.446 14.1477 189.015 14.0077 189.65 14.0077Z"
        fill="white" />
    <path
        d="M66.07 31.7217H67.07V38.7217H66.07V31.7217ZM62.05 38.7217H61.05V31.7217H62.05V38.7217ZM66.16 35.6017H61.95V34.7317H66.16V35.6017ZM71.8852 38.7817C71.3186 38.7817 70.8186 38.665 70.3852 38.4317C69.9586 38.1983 69.6252 37.8783 69.3852 37.4717C69.1519 37.065 69.0352 36.5983 69.0352 36.0717C69.0352 35.545 69.1486 35.0783 69.3752 34.6717C69.6086 34.265 69.9252 33.9483 70.3252 33.7217C70.7319 33.4883 71.1886 33.3717 71.6952 33.3717C72.2086 33.3717 72.6619 33.485 73.0552 33.7117C73.4486 33.9383 73.7552 34.2583 73.9752 34.6717C74.2019 35.0783 74.3152 35.555 74.3152 36.1017C74.3152 36.1417 74.3119 36.1883 74.3052 36.2417C74.3052 36.295 74.3019 36.345 74.2952 36.3917H69.7852V35.7017H73.7952L73.4052 35.9417C73.4119 35.6017 73.3419 35.2983 73.1952 35.0317C73.0486 34.765 72.8452 34.5583 72.5852 34.4117C72.3319 34.2583 72.0352 34.1817 71.6952 34.1817C71.3619 34.1817 71.0652 34.2583 70.8052 34.4117C70.5452 34.5583 70.3419 34.7683 70.1952 35.0417C70.0486 35.3083 69.9752 35.615 69.9752 35.9617V36.1217C69.9752 36.475 70.0552 36.7917 70.2152 37.0717C70.3819 37.345 70.6119 37.5583 70.9052 37.7117C71.1986 37.865 71.5352 37.9417 71.9152 37.9417C72.2286 37.9417 72.5119 37.8883 72.7652 37.7817C73.0252 37.675 73.2519 37.515 73.4452 37.3017L73.9752 37.9217C73.7352 38.2017 73.4352 38.415 73.0752 38.5617C72.7219 38.7083 72.3252 38.7817 71.8852 38.7817ZM71.6852 40.6817C71.5452 40.6817 71.4252 40.635 71.3252 40.5417C71.2252 40.4483 71.1752 40.3283 71.1752 40.1817C71.1752 40.0283 71.2252 39.9017 71.3252 39.8017C71.4252 39.7083 71.5452 39.6617 71.6852 39.6617C71.8252 39.6617 71.9452 39.7083 72.0452 39.8017C72.1452 39.9017 72.1952 40.0283 72.1952 40.1817C72.1952 40.3283 72.1452 40.4483 72.0452 40.5417C71.9452 40.635 71.8252 40.6817 71.6852 40.6817ZM69.8952 32.6517L71.2252 31.3517H72.1452L73.4752 32.6517H72.6052L71.2852 31.5517H72.0852L70.7652 32.6517H69.8952ZM81.1538 38.7817C80.6205 38.7817 80.2072 38.6383 79.9138 38.3517C79.6205 38.065 79.4738 37.655 79.4738 37.1217V32.2617H80.4338V37.0817C80.4338 37.3683 80.5038 37.5883 80.6438 37.7417C80.7905 37.895 80.9972 37.9717 81.2638 37.9717C81.5638 37.9717 81.8138 37.8883 82.0138 37.7217L82.3138 38.4117C82.1672 38.5383 81.9905 38.6317 81.7838 38.6917C81.5838 38.7517 81.3738 38.7817 81.1538 38.7817ZM78.5738 34.2117V33.4217H81.9538V34.2117H78.5738ZM86.8045 33.3717C87.2378 33.3717 87.6178 33.455 87.9445 33.6217C88.2778 33.7883 88.5378 34.0417 88.7245 34.3817C88.9111 34.7217 89.0045 35.1517 89.0045 35.6717V38.7217H88.0445V35.7817C88.0445 35.2683 87.9178 34.8817 87.6645 34.6217C87.4178 34.3617 87.0678 34.2317 86.6145 34.2317C86.2745 34.2317 85.9778 34.2983 85.7245 34.4317C85.4711 34.565 85.2745 34.7617 85.1345 35.0217C85.0011 35.2817 84.9345 35.605 84.9345 35.9917V38.7217H83.9745V31.3017H84.9345V34.8517L84.7445 34.4717C84.9178 34.125 85.1845 33.855 85.5445 33.6617C85.9045 33.4683 86.3245 33.3717 86.8045 33.3717ZM93.5511 38.7817C93.0178 38.7817 92.5444 38.665 92.1311 38.4317C91.7178 38.1983 91.3911 37.8783 91.1511 37.4717C90.9111 37.0583 90.7911 36.5917 90.7911 36.0717C90.7911 35.545 90.9111 35.0783 91.1511 34.6717C91.3911 34.265 91.7178 33.9483 92.1311 33.7217C92.5444 33.4883 93.0178 33.3717 93.5511 33.3717C94.0778 33.3717 94.5478 33.4883 94.9611 33.7217C95.3811 33.9483 95.7078 34.265 95.9411 34.6717C96.1811 35.0717 96.3011 35.5383 96.3011 36.0717C96.3011 36.5983 96.1811 37.065 95.9411 37.4717C95.7078 37.8783 95.3811 38.1983 94.9611 38.4317C94.5478 38.665 94.0778 38.7817 93.5511 38.7817ZM93.5511 37.9417C93.8911 37.9417 94.1944 37.865 94.4611 37.7117C94.7344 37.5583 94.9478 37.3417 95.1011 37.0617C95.2544 36.775 95.3311 36.445 95.3311 36.0717C95.3311 35.6917 95.2544 35.365 95.1011 35.0917C94.9478 34.8117 94.7344 34.595 94.4611 34.4417C94.1944 34.2883 93.8911 34.2117 93.5511 34.2117C93.2111 34.2117 92.9078 34.2883 92.6411 34.4417C92.3744 34.595 92.1611 34.8117 92.0011 35.0917C91.8411 35.365 91.7611 35.6917 91.7611 36.0717C91.7611 36.445 91.8411 36.775 92.0011 37.0617C92.1611 37.3417 92.3744 37.5583 92.6411 37.7117C92.9078 37.865 93.2111 37.9417 93.5511 37.9417ZM91.7511 32.6517L93.0911 31.6517H93.9911L95.3311 32.6517H94.4511L93.1411 31.8417H93.9411L92.6311 32.6517H91.7511ZM94.5311 31.7717L95.7111 30.6417H96.8011L95.3211 31.7717H94.5311ZM100.959 33.3717C101.392 33.3717 101.772 33.455 102.099 33.6217C102.432 33.7883 102.692 34.0417 102.879 34.3817C103.065 34.7217 103.159 35.1517 103.159 35.6717V38.7217H102.199V35.7817C102.199 35.2683 102.072 34.8817 101.819 34.6217C101.572 34.3617 101.222 34.2317 100.769 34.2317C100.429 34.2317 100.132 34.2983 99.8788 34.4317C99.6254 34.565 99.4288 34.7617 99.2888 35.0217C99.1554 35.2817 99.0888 35.605 99.0888 35.9917V38.7217H98.1288V33.4217H99.0488V34.8517L98.8988 34.4717C99.0721 34.125 99.3388 33.855 99.6988 33.6617C100.059 33.4683 100.479 33.3717 100.959 33.3717ZM107.755 40.7217C107.269 40.7217 106.795 40.6517 106.335 40.5117C105.882 40.3783 105.512 40.185 105.225 39.9317L105.685 39.1917C105.932 39.405 106.235 39.5717 106.595 39.6917C106.955 39.8183 107.332 39.8817 107.725 39.8817C108.352 39.8817 108.812 39.735 109.105 39.4417C109.399 39.1483 109.545 38.7017 109.545 38.1017V36.9817L109.645 35.9317L109.595 34.8717V33.4217H110.505V38.0017C110.505 38.935 110.272 39.6217 109.805 40.0617C109.339 40.5017 108.655 40.7217 107.755 40.7217ZM107.635 38.5017C107.122 38.5017 106.662 38.395 106.255 38.1817C105.855 37.9617 105.535 37.6583 105.295 37.2717C105.062 36.885 104.945 36.4383 104.945 35.9317C104.945 35.4183 105.062 34.9717 105.295 34.5917C105.535 34.205 105.855 33.905 106.255 33.6917C106.662 33.4783 107.122 33.3717 107.635 33.3717C108.089 33.3717 108.502 33.465 108.875 33.6517C109.249 33.8317 109.545 34.1117 109.765 34.4917C109.992 34.8717 110.105 35.3517 110.105 35.9317C110.105 36.505 109.992 36.9817 109.765 37.3617C109.545 37.7417 109.249 38.0283 108.875 38.2217C108.502 38.4083 108.089 38.5017 107.635 38.5017ZM107.745 37.6617C108.099 37.6617 108.412 37.5883 108.685 37.4417C108.959 37.295 109.172 37.0917 109.325 36.8317C109.485 36.5717 109.565 36.2717 109.565 35.9317C109.565 35.5917 109.485 35.2917 109.325 35.0317C109.172 34.7717 108.959 34.5717 108.685 34.4317C108.412 34.285 108.099 34.2117 107.745 34.2117C107.392 34.2117 107.075 34.285 106.795 34.4317C106.522 34.5717 106.305 34.7717 106.145 35.0317C105.992 35.2917 105.915 35.5917 105.915 35.9317C105.915 36.2717 105.992 36.5717 106.145 36.8317C106.305 37.0917 106.522 37.295 106.795 37.4417C107.075 37.5883 107.392 37.6617 107.745 37.6617ZM117.845 38.7817C117.312 38.7817 116.899 38.6383 116.605 38.3517C116.312 38.065 116.165 37.655 116.165 37.1217V32.2617H117.125V37.0817C117.125 37.3683 117.195 37.5883 117.335 37.7417C117.482 37.895 117.689 37.9717 117.955 37.9717C118.255 37.9717 118.505 37.8883 118.705 37.7217L119.005 38.4117C118.859 38.5383 118.682 38.6317 118.475 38.6917C118.275 38.7517 118.065 38.7817 117.845 38.7817ZM115.265 34.2117V33.4217H118.645V34.2117H115.265ZM123.496 33.3717C123.929 33.3717 124.309 33.455 124.636 33.6217C124.969 33.7883 125.229 34.0417 125.416 34.3817C125.603 34.7217 125.696 35.1517 125.696 35.6717V38.7217H124.736V35.7817C124.736 35.2683 124.609 34.8817 124.356 34.6217C124.109 34.3617 123.759 34.2317 123.306 34.2317C122.966 34.2317 122.669 34.2983 122.416 34.4317C122.163 34.565 121.966 34.7617 121.826 35.0217C121.693 35.2817 121.626 35.605 121.626 35.9917V38.7217H120.666V31.3017H121.626V34.8517L121.436 34.4717C121.609 34.125 121.876 33.855 122.236 33.6617C122.596 33.4683 123.016 33.3717 123.496 33.3717ZM130.203 38.7817C129.749 38.7817 129.349 38.6983 129.003 38.5317C128.663 38.365 128.396 38.1117 128.203 37.7717C128.016 37.425 127.923 36.9917 127.923 36.4717V33.4217H128.883V36.3617C128.883 36.8817 129.006 37.2717 129.253 37.5317C129.506 37.7917 129.859 37.9217 130.313 37.9217C130.646 37.9217 130.936 37.855 131.183 37.7217C131.429 37.5817 131.619 37.3817 131.753 37.1217C131.886 36.855 131.953 36.535 131.953 36.1617V33.4217H132.913V38.7217H132.003V37.2917L132.153 37.6717C131.979 38.025 131.719 38.2983 131.373 38.4917C131.026 38.685 130.636 38.7817 130.203 38.7817ZM132.263 34.1517V33.4217H132.443C132.663 33.4217 132.823 33.3617 132.923 33.2417C133.029 33.115 133.083 32.9583 133.083 32.7717C133.083 32.645 133.063 32.5283 133.023 32.4217C132.989 32.315 132.943 32.2217 132.883 32.1417L133.493 31.9117C133.586 32.025 133.656 32.1583 133.703 32.3117C133.749 32.465 133.773 32.6283 133.773 32.8017C133.773 33.2017 133.656 33.5283 133.423 33.7817C133.189 34.0283 132.863 34.1517 132.443 34.1517H132.263ZM139.894 38.7217L137.574 33.4217H138.574L140.634 38.2217H140.154L142.254 33.4217H143.194L140.874 38.7217H139.894ZM144.59 38.7217V33.4217H145.55V38.7217H144.59ZM145.07 32.4017C144.883 32.4017 144.726 32.3417 144.6 32.2217C144.48 32.1017 144.42 31.955 144.42 31.7817C144.42 31.6017 144.48 31.4517 144.6 31.3317C144.726 31.2117 144.883 31.1517 145.07 31.1517C145.256 31.1517 145.41 31.2117 145.53 31.3317C145.656 31.445 145.72 31.5883 145.72 31.7617C145.72 31.9417 145.66 32.095 145.54 32.2217C145.42 32.3417 145.263 32.4017 145.07 32.4017ZM150.243 38.7817C149.676 38.7817 149.176 38.665 148.743 38.4317C148.316 38.1983 147.983 37.8783 147.743 37.4717C147.509 37.065 147.393 36.5983 147.393 36.0717C147.393 35.545 147.506 35.0783 147.733 34.6717C147.966 34.265 148.283 33.9483 148.683 33.7217C149.089 33.4883 149.546 33.3717 150.053 33.3717C150.566 33.3717 151.019 33.485 151.413 33.7117C151.806 33.9383 152.113 34.2583 152.333 34.6717C152.559 35.0783 152.673 35.555 152.673 36.1017C152.673 36.1417 152.669 36.1883 152.663 36.2417C152.663 36.295 152.659 36.345 152.653 36.3917H148.143V35.7017H152.153L151.763 35.9417C151.769 35.6017 151.699 35.2983 151.553 35.0317C151.406 34.765 151.203 34.5583 150.943 34.4117C150.689 34.2583 150.393 34.1817 150.053 34.1817C149.719 34.1817 149.423 34.2583 149.163 34.4117C148.903 34.5583 148.699 34.7683 148.553 35.0417C148.406 35.3083 148.333 35.615 148.333 35.9617V36.1217C148.333 36.475 148.413 36.7917 148.573 37.0717C148.739 37.345 148.969 37.5583 149.263 37.7117C149.556 37.865 149.893 37.9417 150.273 37.9417C150.586 37.9417 150.869 37.8883 151.123 37.7817C151.383 37.675 151.609 37.515 151.803 37.3017L152.333 37.9217C152.093 38.2017 151.793 38.415 151.433 38.5617C151.079 38.7083 150.683 38.7817 150.243 38.7817ZM150.043 40.6817C149.903 40.6817 149.783 40.635 149.683 40.5417C149.583 40.4483 149.533 40.3283 149.533 40.1817C149.533 40.0283 149.583 39.9017 149.683 39.8017C149.783 39.7083 149.903 39.6617 150.043 39.6617C150.183 39.6617 150.303 39.7083 150.403 39.8017C150.503 39.9017 150.553 40.0283 150.553 40.1817C150.553 40.3283 150.503 40.4483 150.403 40.5417C150.303 40.635 150.183 40.6817 150.043 40.6817ZM148.253 32.6517L149.583 31.3517H150.503L151.833 32.6517H150.963L149.643 31.5517H150.443L149.123 32.6517H148.253ZM157.336 33.3717C157.769 33.3717 158.149 33.455 158.476 33.6217C158.809 33.7883 159.069 34.0417 159.256 34.3817C159.442 34.7217 159.536 35.1517 159.536 35.6717V38.7217H158.576V35.7817C158.576 35.2683 158.449 34.8817 158.196 34.6217C157.949 34.3617 157.599 34.2317 157.146 34.2317C156.806 34.2317 156.509 34.2983 156.256 34.4317C156.002 34.565 155.806 34.7617 155.666 35.0217C155.532 35.2817 155.466 35.605 155.466 35.9917V38.7217H154.506V33.4217H155.426V34.8517L155.276 34.4717C155.449 34.125 155.716 33.855 156.076 33.6617C156.436 33.4683 156.856 33.3717 157.336 33.3717ZM166.518 38.7817C166.078 38.7817 165.658 38.7217 165.258 38.6017C164.865 38.4817 164.555 38.335 164.328 38.1617L164.728 37.4017C164.955 37.555 165.235 37.685 165.568 37.7917C165.901 37.8983 166.241 37.9517 166.588 37.9517C167.035 37.9517 167.355 37.8883 167.548 37.7617C167.748 37.635 167.848 37.4583 167.848 37.2317C167.848 37.065 167.788 36.935 167.668 36.8417C167.548 36.7483 167.388 36.6783 167.188 36.6317C166.995 36.585 166.778 36.545 166.538 36.5117C166.298 36.4717 166.058 36.425 165.818 36.3717C165.578 36.3117 165.358 36.2317 165.158 36.1317C164.958 36.025 164.798 35.8817 164.678 35.7017C164.558 35.515 164.498 35.2683 164.498 34.9617C164.498 34.6417 164.588 34.3617 164.768 34.1217C164.948 33.8817 165.201 33.6983 165.528 33.5717C165.861 33.4383 166.255 33.3717 166.708 33.3717C167.055 33.3717 167.405 33.415 167.758 33.5017C168.118 33.5817 168.411 33.6983 168.638 33.8517L168.228 34.6117C167.988 34.4517 167.738 34.3417 167.478 34.2817C167.218 34.2217 166.958 34.1917 166.698 34.1917C166.278 34.1917 165.965 34.2617 165.758 34.4017C165.551 34.535 165.448 34.7083 165.448 34.9217C165.448 35.1017 165.508 35.2417 165.628 35.3417C165.755 35.435 165.915 35.5083 166.108 35.5617C166.308 35.615 166.528 35.6617 166.768 35.7017C167.008 35.735 167.248 35.7817 167.488 35.8417C167.728 35.895 167.945 35.9717 168.138 36.0717C168.338 36.1717 168.498 36.3117 168.618 36.4917C168.745 36.6717 168.808 36.9117 168.808 37.2117C168.808 37.5317 168.715 37.8083 168.528 38.0417C168.341 38.275 168.078 38.4583 167.738 38.5917C167.398 38.7183 166.991 38.7817 166.518 38.7817ZM173.798 38.7217V37.6017L173.748 37.3917V35.4817C173.748 35.075 173.628 34.7617 173.388 34.5417C173.154 34.315 172.801 34.2017 172.328 34.2017C172.014 34.2017 171.708 34.255 171.408 34.3617C171.108 34.4617 170.854 34.5983 170.648 34.7717L170.248 34.0517C170.521 33.8317 170.848 33.665 171.228 33.5517C171.614 33.4317 172.018 33.3717 172.438 33.3717C173.164 33.3717 173.724 33.5483 174.118 33.9017C174.511 34.255 174.708 34.795 174.708 35.5217V38.7217H173.798ZM172.058 38.7817C171.664 38.7817 171.318 38.715 171.018 38.5817C170.724 38.4483 170.498 38.265 170.338 38.0317C170.178 37.7917 170.098 37.5217 170.098 37.2217C170.098 36.935 170.164 36.675 170.298 36.4417C170.438 36.2083 170.661 36.0217 170.968 35.8817C171.281 35.7417 171.701 35.6717 172.228 35.6717H173.908V36.3617H172.268C171.788 36.3617 171.464 36.4417 171.298 36.6017C171.131 36.7617 171.048 36.955 171.048 37.1817C171.048 37.4417 171.151 37.6517 171.358 37.8117C171.564 37.965 171.851 38.0417 172.218 38.0417C172.578 38.0417 172.891 37.9617 173.158 37.8017C173.431 37.6417 173.628 37.4083 173.748 37.1017L173.938 37.7617C173.811 38.075 173.588 38.325 173.268 38.5117C172.948 38.6917 172.544 38.7817 172.058 38.7817ZM171.758 32.6517L173.118 31.3517H174.338L172.658 32.6517H171.758ZM179.294 38.7817C178.754 38.7817 178.271 38.665 177.844 38.4317C177.424 38.1983 177.094 37.8783 176.854 37.4717C176.614 37.065 176.494 36.5983 176.494 36.0717C176.494 35.545 176.614 35.0783 176.854 34.6717C177.094 34.265 177.424 33.9483 177.844 33.7217C178.271 33.4883 178.754 33.3717 179.294 33.3717C179.774 33.3717 180.201 33.4683 180.574 33.6617C180.954 33.8483 181.248 34.1283 181.454 34.5017L180.724 34.9717C180.551 34.7117 180.338 34.5217 180.084 34.4017C179.838 34.275 179.571 34.2117 179.284 34.2117C178.938 34.2117 178.628 34.2883 178.354 34.4417C178.081 34.595 177.864 34.8117 177.704 35.0917C177.544 35.365 177.464 35.6917 177.464 36.0717C177.464 36.4517 177.544 36.7817 177.704 37.0617C177.864 37.3417 178.081 37.5583 178.354 37.7117C178.628 37.865 178.938 37.9417 179.284 37.9417C179.571 37.9417 179.838 37.8817 180.084 37.7617C180.338 37.635 180.551 37.4417 180.724 37.1817L181.454 37.6417C181.248 38.0083 180.954 38.2917 180.574 38.4917C180.201 38.685 179.774 38.7817 179.294 38.7817ZM185.959 33.3717C186.392 33.3717 186.772 33.455 187.099 33.6217C187.432 33.7883 187.692 34.0417 187.879 34.3817C188.065 34.7217 188.159 35.1517 188.159 35.6717V38.7217H187.199V35.7817C187.199 35.2683 187.072 34.8817 186.819 34.6217C186.572 34.3617 186.222 34.2317 185.769 34.2317C185.429 34.2317 185.132 34.2983 184.879 34.4317C184.625 34.565 184.429 34.7617 184.289 35.0217C184.155 35.2817 184.089 35.605 184.089 35.9917V38.7217H183.129V31.3017H184.089V34.8517L183.899 34.4717C184.072 34.125 184.339 33.855 184.699 33.6617C185.059 33.4683 185.479 33.3717 185.959 33.3717Z"
        fill="#B7BEC6" />
    <path fill-rule="evenodd" clip-rule="evenodd"
        d="M25.4682 26.1678H22.7658L24.117 28.5678L25.4682 26.1678ZM22.1742 25.1166H26.0598L27.2958 22.9146C26.7073 22.8909 26.1519 22.6361 25.7502 22.2054C25.5413 22.4297 25.2885 22.6085 25.0075 22.7307C24.7265 22.853 24.4234 22.9161 24.117 22.9161C23.8105 22.9161 23.5074 22.853 23.2264 22.7307C22.9454 22.6085 22.6926 22.4297 22.4838 22.2054C22.082 22.6361 21.5266 22.8909 20.9382 22.9146L22.1742 25.1166ZM10.7526 4.98783C12.969 4.68543 17.0898 4.27383 19.9398 5.99463V21.1362L20.0502 21.333C20.1828 21.4997 20.364 21.6209 20.5686 21.68C20.7733 21.739 20.9912 21.7329 21.1922 21.6624C21.3933 21.592 21.5674 21.4607 21.6904 21.2869C21.8135 21.1131 21.8794 20.9052 21.879 20.6922V5.99463H23.091V20.6922C23.091 20.9647 23.1992 21.2259 23.3918 21.4186C23.5845 21.6112 23.8457 21.7194 24.1182 21.7194C24.3906 21.7194 24.6519 21.6112 24.8445 21.4186C25.0371 21.2259 25.1454 20.9647 25.1454 20.6922V5.99463H26.3574V20.6922C26.357 20.9052 26.4229 21.1131 26.5459 21.2869C26.669 21.4607 26.8431 21.592 27.0441 21.6624C27.2451 21.7329 27.463 21.739 27.6677 21.68C27.8723 21.6209 28.0535 21.4997 28.1862 21.333L28.2966 21.1362V5.99463C31.1466 4.27863 34.3566 4.59663 37.4838 4.99263V27.7434C32.1462 27.9546 27.705 29.895 24.123 33.8754C20.529 29.895 16.083 27.9546 10.7526 27.7434V4.98783Z"
        fill="#F58220" />
    <path fill-rule="evenodd" clip-rule="evenodd"
        d="M2.69773 10.5678C4.81933 9.65096 6.65053 9.43256 8.77813 9.30176V29.5722C16.4461 29.619 20.4997 32.085 23.2513 35.9322C23.2777 36.0246 23.0113 36.0678 21.6841 35.3862C15.0025 32.2926 9.81853 32.2278 3.26773 34.3674C2.68453 34.5102 2.42773 34.2114 2.45773 33.6978C2.44013 26.165 2.42173 18.6326 2.40253 11.1006C2.38959 10.992 2.41113 10.8821 2.46411 10.7865C2.5171 10.6909 2.59883 10.6143 2.69773 10.5678Z"
        fill="#007E41" />
    <path
        d="M34.9741 39.195H37.9033C37.9591 39.1931 38.0146 39.2028 38.0664 39.2235C38.1183 39.2441 38.1653 39.2753 38.2045 39.315C38.2448 39.3575 38.2761 39.4077 38.2967 39.4625C38.3173 39.5173 38.3268 39.5757 38.3245 39.6342C38.3275 39.6973 38.3175 39.7604 38.295 39.8195C38.2725 39.8785 38.238 39.9323 38.1937 39.9774C38.1529 40.0188 38.1041 40.0516 38.0502 40.0736C37.9964 40.0957 37.9387 40.1066 37.8805 40.1058H34.9741V39.195ZM35.0017 41.199H38.0473C38.1064 41.1959 38.1655 41.2052 38.2208 41.2264C38.2761 41.2477 38.3263 41.2803 38.3682 41.3221C38.41 41.364 38.4426 41.4142 38.4638 41.4695C38.485 41.5247 38.4944 41.5839 38.4913 41.643C38.4978 41.7081 38.4905 41.7738 38.4699 41.8358C38.4492 41.8979 38.4156 41.9549 38.3713 42.003C38.2824 42.0801 38.1672 42.12 38.0497 42.1146H35.0017V41.199ZM33.3745 41.553V43.3662H38.1145C38.3997 43.3696 38.6847 43.3535 38.9677 43.3182C39.1835 43.2906 39.3922 43.223 39.5833 43.119C39.766 43.0149 39.9115 42.8563 39.9997 42.6654C40.1095 42.4096 40.1604 42.1323 40.1485 41.8542C40.1584 41.6295 40.1174 41.4055 40.0285 41.199C39.9629 41.0498 39.8585 40.9209 39.7261 40.8258C39.6216 40.7507 39.5034 40.6969 39.3781 40.6674C39.2744 40.6446 39.1687 40.6325 39.0625 40.6314V40.611C39.1343 40.6076 39.2053 40.5947 39.2737 40.5726C39.3823 40.538 39.4828 40.4816 39.5689 40.407C39.6894 40.3036 39.7833 40.1727 39.8425 40.0254C39.9291 39.8139 39.97 39.5866 39.9625 39.3582C39.9748 39.0987 39.9177 38.8406 39.7969 38.6106C39.6959 38.432 39.5449 38.2868 39.3625 38.193C39.1866 38.1043 38.9965 38.047 38.8009 38.0238C38.5758 37.9986 38.3494 37.987 38.1229 37.989H33.3829L33.3745 41.553ZM31.0813 37.989V43.3662H32.7613V37.989H31.0813ZM27.0013 42.069V37.989H25.3213V43.3662H30.6277V42.0666L27.0013 42.069ZM20.5813 42.1158V41.2278H24.5413V40.1394H20.5813V39.2346H24.8005V37.989H18.9049V43.3662H24.8005V42.1146L20.5813 42.1158ZM16.6129 37.9914V43.3686H18.2929V37.989L16.6129 37.9914ZM12.0901 42.0198L9.94329 37.989H8.08209L11.0113 43.3458H13.1521L16.0981 37.989H14.2381L12.0901 42.0198Z"
        fill="#007E41" />
    <path fill-rule="evenodd" clip-rule="evenodd"
        d="M45.3626 10.5678C43.2374 9.65096 41.4026 9.43256 39.2786 9.30176V29.5722C31.6106 29.619 27.5558 32.085 24.8054 35.9322C24.779 36.0246 25.0454 36.0678 26.3726 35.3862C33.0494 32.2986 38.2382 32.2338 44.789 34.3734C45.3722 34.5162 45.629 34.2174 45.599 33.7038L45.653 11.1066C45.6679 10.9976 45.6478 10.8867 45.5956 10.7899C45.5434 10.693 45.4618 10.6153 45.3626 10.5678Z"
        fill="#007E41" />
</svg>